<svg xmlns="http://www.w3.org/2000/svg" width="22" height="22" viewBox="0 0 22 22" fill="none">
  <circle cx="11" cy="11" r="10" stroke="#395664" stroke-width="1.5" stroke-linecap="round"/>
  <path d="M8.52241 14.1768L9.05274 13.6465L8.74605 13.3398L8.32727 13.4526L8.52241 14.1768ZM3.46094 17.5699L2.86607 17.1131L2.49215 17.6001L2.89569 18.0628L3.46094 17.5699ZM11.0004 16.6548L10.4701 17.1851L11.0004 17.7154L11.5307 17.1851L11.0004 16.6548ZM13.4784 14.1768L13.6735 13.4526L13.2548 13.3397L12.9481 13.6464L13.4784 14.1768ZM18.5399 17.5697L19.1052 18.0626L19.5087 17.5999L19.1348 17.1129L18.5399 17.5697ZM8.32727 13.4526C6.12384 14.0464 4.21587 15.3552 2.86607 17.1131L4.05581 18.0266C5.20981 16.5237 6.83955 15.4071 8.71756 14.901L8.32727 13.4526ZM11.5307 16.1245L9.05274 13.6465L7.99208 14.7071L10.4701 17.1851L11.5307 16.1245ZM12.9481 13.6464L10.4701 16.1245L11.5307 17.1851L14.0087 14.7071L12.9481 13.6464ZM19.1348 17.1129C17.785 15.355 15.877 14.0463 13.6735 13.4526L13.2833 14.9009C15.1613 15.407 16.7911 16.5236 17.9451 18.0265L19.1348 17.1129ZM17.9747 17.0768C16.2778 19.0226 13.7829 20.2502 11.0004 20.2502V21.7502C14.2344 21.7502 17.1356 20.3212 19.1052 18.0626L17.9747 17.0768ZM11.0004 20.2502C8.21789 20.2502 5.72303 19.0226 4.02618 17.0769L2.89569 18.0628C4.86529 20.3213 7.76639 21.7502 11.0004 21.7502V20.2502Z" fill="#395664"/>
  <path d="M13.8484 8.14978C13.8484 9.72378 12.5724 10.9998 10.9984 10.9998V12.4998C13.4008 12.4998 15.3484 10.5522 15.3484 8.14978H13.8484ZM10.9984 10.9998C9.42442 10.9998 8.14844 9.72378 8.14844 8.14978H6.64844C6.64844 10.5522 8.59599 12.4998 10.9984 12.4998V10.9998ZM8.14844 8.14978C8.14844 6.57578 9.42442 5.2998 10.9984 5.2998V3.7998C8.59599 3.7998 6.64844 5.74736 6.64844 8.14978H8.14844ZM10.9984 5.2998C12.5724 5.2998 13.8484 6.57578 13.8484 8.14978H15.3484C15.3484 5.74736 13.4008 3.7998 10.9984 3.7998V5.2998Z" fill="#395664"/>
</svg>