<?xml version="1.0" encoding="UTF-8"?>
<svg width="28px" height="28px" viewBox="0 0 28 28" version="1.1" xmlns="http://www.w3.org/2000/svg" xmlns:xlink="http://www.w3.org/1999/xlink">
  <title>形状</title>
  <g id="页面-1" stroke="none" stroke-width="1" fill="none" fill-rule="evenodd">
    <g id="My-Points首页" transform="translate(-1643.000000, -16.000000)" fill="#FFFFFF" fill-rule="nonzero">
      <path d="M1671.00038,29.9998 L1671.00038,29.9964 C1671.00038,26.2914 1669.52038,22.7378 1666.91038,20.1151 C1664.29038,17.4913 1660.74038,16.0125 1657.04038,16 L1657.03038,16 L1657.00038,16 C1656.52038,16 1656.04038,16.0239 1655.56038,16.0718 C1652.11038,16.4329 1648.93038,18.0553 1646.61038,20.6255 C1644.29038,23.197 1643.00038,26.5341 1643.00038,29.9965 L1643.00038,30.0033 C1643.00038,33.7153 1644.48038,37.2745 1647.10038,39.8995 C1649.72038,42.5233 1653.28038,43.9988 1657.00038,44 L1657.01038,44 C1657.72038,44 1658.44038,43.9465 1659.15038,43.8382 C1659.80038,43.7391 1660.44038,43.5933 1661.06038,43.403 C1661.16038,43.3734 1661.26038,43.3449 1661.35038,43.313 C1663.33038,42.6681 1665.14038,41.5846 1666.65038,40.1435 C1666.82038,39.9771 1666.99038,39.8062 1667.16038,39.6296 C1669.63038,37.0331 1671.00038,33.5866 1671.00038,30.0035 L1671.00038,29.9998 Z M1666.63038,38.1414 C1665.64038,37.1901 1664.50038,36.3925 1663.27038,35.7796 C1663.85038,34.1389 1664.20038,32.4277 1664.32038,30.6926 L1669.59038,30.6926 C1669.45038,33.4327 1668.41038,36.0496 1666.63038,38.1414 Z M1665.22038,39.5667 C1665.18038,39.602 1665.14038,39.635 1665.10038,39.6703 C1664.98038,39.7695 1664.86038,39.8686 1664.74038,39.962 C1664.68038,40.0087 1664.62038,40.052 1664.56038,40.0976 C1664.45038,40.1773 1664.35038,40.2559 1664.24038,40.3311 C1664.17038,40.379 1664.10038,40.4246 1664.03038,40.4713 C1663.93038,40.5408 1663.83038,40.6091 1663.73038,40.6752 C1663.65038,40.7208 1663.58038,40.7652 1663.50038,40.8097 C1663.40038,40.8712 1663.30038,40.9327 1663.20038,40.9919 C1663.12038,41.0352 1663.04038,41.0763 1662.96038,41.1184 C1662.86038,41.1742 1662.76038,41.2289 1662.65038,41.2825 C1662.57038,41.3223 1662.49038,41.3611 1662.41038,41.3987 C1662.31038,41.4488 1662.20038,41.4978 1662.10038,41.5445 C1662.01038,41.581 1661.93038,41.6163 1661.85038,41.6505 C1661.74038,41.6949 1661.63038,41.7382 1661.53038,41.7792 C1661.44038,41.8111 1661.36038,41.843 1661.27038,41.8738 C1661.17038,41.9125 1661.06038,41.9501 1660.95038,41.9854 C1660.86038,42.0151 1660.77038,42.0413 1660.69038,42.0675 C1660.58038,42.1016 1660.47038,42.1324 1660.35038,42.1632 C1660.27038,42.1871 1660.18038,42.211 1660.09038,42.2327 C1659.98038,42.2623 1659.87038,42.2862 1659.75038,42.3124 C1659.66038,42.3318 1659.58038,42.3512 1659.49038,42.3682 C1659.37038,42.391 1659.25038,42.4115 1659.13038,42.432 L1659.07038,42.4423 L1659.07038,42.4412 C1660.63038,40.9076 1661.88038,39.0847 1662.75038,37.0751 C1663.82038,37.6208 1664.81038,38.3192 1665.68038,39.1498 C1665.53038,39.2934 1665.38038,39.4311 1665.22038,39.5667 Z M1654.51038,42.3694 C1654.42038,42.3523 1654.33038,42.3318 1654.25038,42.3136 C1654.13038,42.2885 1654.02038,42.2623 1653.91038,42.2338 C1653.82038,42.2122 1653.73038,42.1882 1653.64038,42.1643 C1653.53038,42.1335 1653.42038,42.1028 1653.31038,42.0697 C1653.22038,42.0435 1653.14038,42.0151 1653.05038,41.9877 C1652.94038,41.9524 1652.83038,41.9148 1652.73038,41.8761 C1652.64038,41.8453 1652.56038,41.8134 1652.47038,41.7815 C1652.36038,41.7405 1652.26038,41.6972 1652.15038,41.6539 C1652.07038,41.6186 1651.98038,41.5833 1651.90038,41.5468 C1651.79038,41.5001 1651.69038,41.4511 1651.59038,41.401 C1651.51038,41.3622 1651.43038,41.3235 1651.34038,41.2848 C1651.24038,41.2323 1651.14038,41.1777 1651.03038,41.1218 C1650.96038,41.0797 1650.88038,41.0387 1650.80038,40.9942 C1650.70038,40.9361 1650.60038,40.8746 1650.49038,40.8131 C1650.42038,40.7686 1650.35038,40.7254 1650.27038,40.6775 C1650.17038,40.6114 1650.07038,40.5419 1649.96038,40.4736 C1649.89038,40.428 1649.83038,40.3836 1649.76038,40.3357 C1649.65038,40.2582 1649.54038,40.1785 1649.44038,40.0976 C1649.38038,40.0532 1649.32038,40.0099 1649.26038,39.9666 C1649.13038,39.8663 1649.01038,39.7626 1648.88038,39.6567 C1648.85038,39.627 1648.81038,39.5997 1648.78038,39.5689 C1648.62038,39.4345 1648.47038,39.2955 1648.32038,39.152 L1648.32038,39.1508 C1649.18038,38.3202 1650.17038,37.6207 1651.24038,37.0761 C1652.11038,39.0859 1653.37038,40.9089 1654.93038,42.4433 L1654.87038,42.4319 C1654.75038,42.4114 1654.63038,42.3921 1654.51038,42.3681 L1654.51038,42.3694 Z M1647.37038,21.8627 C1648.36038,22.8015 1649.48038,23.5899 1650.70038,24.2006 C1650.09038,25.8378 1649.74038,27.5614 1649.67038,29.307 L1644.41038,29.307 C1644.55038,26.5681 1645.59038,23.9522 1647.37038,21.8627 Z M1648.78038,20.4386 C1648.82038,20.4021 1648.87038,20.3679 1648.91038,20.3326 C1649.02038,20.2335 1649.14038,20.1355 1649.26038,20.0409 C1649.32038,19.9931 1649.39038,19.9475 1649.45038,19.9008 C1649.55038,19.8233 1649.66038,19.7447 1649.76038,19.6695 C1649.83038,19.6205 1649.90038,19.575 1649.97038,19.5271 C1650.07038,19.4588 1650.17038,19.3904 1650.27038,19.3255 C1650.35038,19.2787 1650.42038,19.2343 1650.50038,19.1887 C1650.60038,19.1272 1650.70038,19.0657 1650.80038,19.0076 C1650.88038,18.9632 1650.96038,18.921 1651.04038,18.8788 C1651.14038,18.8242 1651.24038,18.7695 1651.35038,18.7171 C1651.43038,18.676 1651.51038,18.6373 1651.59038,18.5986 C1651.69038,18.5496 1651.80038,18.5006 1651.90038,18.455 C1651.98038,18.4186 1652.07038,18.3832 1652.15038,18.3479 C1652.26038,18.3035 1652.36038,18.2613 1652.47038,18.2203 C1652.56038,18.1873 1652.64038,18.1554 1652.73038,18.1246 C1652.83038,18.0859 1652.94038,18.0494 1653.05038,18.013 C1653.14038,17.9833 1653.22038,17.9571 1653.31038,17.9309 C1653.42038,17.8979 1653.53038,17.866 1653.64038,17.8352 C1653.73038,17.8113 1653.82038,17.7874 1653.91038,17.7657 C1654.02038,17.7361 1654.13038,17.711 1654.25038,17.686 C1654.34038,17.6666 1654.42038,17.6472 1654.51038,17.6301 C1654.63038,17.6074 1654.75038,17.5869 1654.87038,17.5663 C1654.91038,17.5584 1654.96038,17.5504 1655.00038,17.5436 L1655.00038,17.5447 C1653.45038,19.1056 1652.17038,20.9228 1651.23038,22.9154 C1650.17038,22.372 1649.19038,21.677 1648.32038,20.8533 C1648.47038,20.7108 1648.62038,20.5719 1648.78038,20.4386 Z M1659.49038,17.6313 C1659.58038,17.6484 1659.66038,17.6689 1659.75038,17.6871 C1659.87038,17.7122 1659.98038,17.7384 1660.10038,17.7669 C1660.18038,17.7885 1660.27038,17.8124 1660.36038,17.8364 C1660.47038,17.866 1660.58038,17.899 1660.69038,17.9321 C1660.78038,17.9583 1660.86038,17.9856 1660.95038,18.0141 C1661.06038,18.0494 1661.17038,18.087 1661.27038,18.1269 C1661.36038,18.1565 1661.44038,18.1884 1661.53038,18.2203 C1661.63038,18.2625 1661.74038,18.3046 1661.85038,18.3502 C1661.93038,18.3844 1662.01038,18.4197 1662.10038,18.455 C1662.20038,18.5017 1662.31038,18.5519 1662.41038,18.6008 C1662.49038,18.6384 1662.57038,18.6772 1662.65038,18.7171 C1662.76038,18.7706 1662.86038,18.8253 1662.97038,18.8823 C1663.04038,18.9233 1663.12038,18.9643 1663.19038,19.0076 C1663.30038,19.0668 1663.40038,19.1306 1663.51038,19.1933 C1663.58038,19.2366 1663.65038,19.281 1663.72038,19.3255 C1663.83038,19.3927 1663.93038,19.4644 1664.04038,19.5351 C1664.10038,19.5795 1664.17038,19.6228 1664.24038,19.6695 C1664.35038,19.7481 1664.46038,19.8302 1664.57038,19.9111 C1664.62038,19.9544 1664.68038,19.9954 1664.74038,20.0398 C1664.86038,20.1389 1664.99038,20.2437 1665.11038,20.3486 C1665.15038,20.3782 1665.18038,20.4067 1665.22038,20.4363 C1665.38038,20.5707 1665.53038,20.7097 1665.68038,20.8533 L1665.68038,20.8521 C1664.81038,21.677 1663.83038,22.3708 1662.77038,22.9143 C1661.83038,20.9216 1660.55038,19.1054 1659.00038,17.5459 C1659.05038,17.5528 1659.09038,17.5607 1659.14038,17.5687 C1659.25038,17.5881 1659.37038,17.6074 1659.49038,17.6313 Z M1657.69038,41.8372 L1657.69038,35.702 C1659.00038,35.7703 1660.28038,36.0426 1661.49038,36.5109 C1660.62038,38.5354 1659.32038,40.3502 1657.69038,41.8372 Z M1661.51038,23.4815 C1660.29038,23.9532 1659.00038,24.2278 1657.69038,24.2961 L1657.69038,18.2009 C1659.28038,19.7105 1660.57038,21.5002 1661.51038,23.4815 Z M1656.31038,18.1997 L1656.31038,24.2961 C1655.00038,24.2266 1653.71038,23.9509 1652.49038,23.4792 C1653.43038,21.4991 1654.72038,19.7094 1656.31038,18.1997 Z M1651.96038,24.7622 L1651.96038,24.7622 C1653.35038,25.3023 1654.82038,25.6133 1656.31038,25.6828 L1656.31038,29.3058 L1651.06038,29.3058 C1651.13038,27.7541 1651.43038,26.2229 1651.96038,24.7634 L1651.96038,24.7622 Z M1656.31038,30.6912 L1656.31038,34.3166 C1654.83038,34.3838 1653.38038,34.6891 1652.00038,35.2201 C1651.49038,33.7583 1651.18038,32.2363 1651.07038,30.6934 L1656.31038,30.6912 Z M1656.31038,35.7008 L1656.31038,41.8372 C1654.68038,40.3515 1653.38038,38.5355 1652.51038,36.5108 C1653.72038,36.0425 1655.01038,35.7702 1656.31038,35.7019 L1656.31038,35.7008 Z M1662.00038,35.22 C1660.62038,34.6903 1659.17038,34.3849 1657.69038,34.3165 L1657.69038,30.6923 L1662.93038,30.6923 C1662.82038,32.2361 1662.51038,33.7585 1662.00038,35.22 Z M1657.69038,29.3059 L1657.69038,25.6829 C1659.18038,25.6134 1660.65038,25.3023 1662.04038,24.7623 C1662.57038,26.2218 1662.88038,27.7542 1662.94038,29.3059 L1657.69038,29.3059 Z M1649.68038,30.6925 C1649.80038,32.4277 1650.15038,34.1388 1650.73038,35.7794 C1649.50038,36.3924 1648.37038,37.1887 1647.37038,38.1412 C1645.59038,36.0494 1644.55038,33.4323 1644.41038,30.6924 L1649.68038,30.6925 Z M1664.33038,29.3059 C1664.26038,27.5605 1663.91038,25.8378 1663.30038,24.1995 C1664.52038,23.5888 1665.64038,22.8004 1666.63038,21.8616 C1668.41038,23.9511 1669.45038,26.567 1669.59038,29.3058 L1664.33038,29.3059 Z" id="形状"></path>
    </g>
  </g>
</svg>
