<svg width="14" height="14" viewBox="0 0 14 14" fill="none" xmlns="http://www.w3.org/2000/svg">
  <path fill-rule="evenodd" clip-rule="evenodd" d="M11.4125 10.5814H12.5334C12.6339 10.5814 12.6945 10.6953 12.6403 10.7816C11.4188 12.7172 9.28854 14 6.86325 14C3.09695 14 0.0386236 10.9053 0.000354712 7.07164C-0.0379142 3.17608 3.02519 0.00982434 6.84571 2.43989e-05C9.27738 -0.00645463 11.4172 1.27796 12.6403 3.21841C12.6961 3.30469 12.6339 3.41864 12.5334 3.41864H11.4125C11.3375 3.41864 11.2642 3.38446 11.2163 3.32422C11.1031 3.18748 10.9851 3.05399 10.8592 2.92539C10.3393 2.39632 9.73501 1.97958 9.06211 1.68981C8.3669 1.38865 7.62703 1.23726 6.86325 1.23726C6.09946 1.23726 5.3596 1.39028 4.66438 1.68981C3.99148 1.97958 3.38715 2.39632 2.86733 2.92539C2.34751 3.45446 1.93931 4.07143 1.65549 4.75677C1.36209 5.46654 1.2122 6.22025 1.2122 7.00002C1.2122 7.77978 1.3605 8.5335 1.65549 9.24326C1.94091 9.92861 2.34751 10.5456 2.86733 11.0746C3.38715 11.6037 3.99148 12.0205 4.66438 12.3102C5.3596 12.6098 6.09946 12.7628 6.86325 12.7628C7.62703 12.7628 8.3669 12.6098 9.06211 12.3102C9.73501 12.0205 10.3393 11.6037 10.8592 11.0746C10.9851 10.9477 11.1047 10.8142 11.2163 10.6758C11.2642 10.6156 11.3359 10.5814 11.4125 10.5814ZM11.6883 5.07421L13.951 6.89746C14.0163 6.94955 14.0163 7.05048 13.951 7.10257L11.6883 8.92582C11.6054 8.99419 11.481 8.93233 11.481 8.82326V7.58606H6.47418C6.40402 7.58606 6.34662 7.52746 6.34662 7.45583V6.54421C6.34662 6.47258 6.40402 6.41397 6.47418 6.41397H11.481V5.17677C11.481 5.0677 11.6038 5.00584 11.6883 5.07421Z" fill="white"/>
</svg>
