<svg xmlns="http://www.w3.org/2000/svg" width="18" height="28" viewBox="0 0 18 28" fill="none">
  <path fill-rule="evenodd" clip-rule="evenodd" d="M6.32099 16.375V17.1869C5.69053 17.5526 5.26651 18.2349 5.26651 19.0162C5.26651 19.7975 5.69053 20.4797 6.32099 20.8454V21.6579H1.56641V20.8556C2.20672 20.4926 2.63876 19.8048 2.63876 19.0162C2.63876 18.2275 2.20672 17.5398 1.56641 17.1767V16.375H6.32099Z" fill="white"/>
  <path fill-rule="evenodd" clip-rule="evenodd" d="M11.6093 6.34052H10.7991C10.4336 5.70943 9.75104 5.28491 8.96927 5.28491C8.1875 5.28491 7.50489 5.70943 7.13938 6.34052H6.32642V1.58594H7.1409C7.50678 2.21558 8.18859 2.63893 8.96927 2.63893C9.74995 2.63893 10.4317 2.21558 10.7976 1.58594H11.6093V6.34052Z" fill="white"/>
  <circle cx="3.96215" cy="3.96215" r="3.96215" fill="white"/>
  <circle cx="13.9973" cy="14.0012" r="3.96215" fill="white"/>
  <circle cx="13.9973" cy="3.96215" r="3.96215" fill="white"/>
  <circle cx="3.96363" cy="14.0012" r="3.96215" transform="rotate(90 3.96363 14.0012)" fill="white"/>
  <circle cx="3.96363" cy="24.0403" r="3.96215" transform="rotate(90 3.96363 24.0403)" fill="white"/>
</svg>
