<?xml version="1.0" encoding="UTF-8"?>
<svg width="104px" height="30px" viewBox="0 0 104 30" version="1.1" xmlns="http://www.w3.org/2000/svg" xmlns:xlink="http://www.w3.org/1999/xlink">
    <title>编组 16</title>
    <g id="页面-1" stroke="none" stroke-width="1" fill="none" fill-rule="evenodd">
        <g id="My-Points首页" transform="translate(-28.000000, -15.000000)" fill="#FFFFFF">
            <g id="编组-16" transform="translate(28.000000, 15.000020)">
                <g id="编组-6">
                    <path d="M6.79198,17.54688 L6.79198,18.41578 C6.11518,18.80718 5.65978,19.53898 5.65978,20.37708 C5.65978,21.21518 6.11518,21.94688 6.79198,22.33838 L6.79198,23.20728 L1.69768,23.20728 L1.69768,22.33828 C2.37438,21.94678 2.82978,21.21508 2.82978,20.37708 C2.82978,19.53898 2.37438,18.80728 1.69768,18.41578 L1.69768,17.54688 L6.79198,17.54688 Z" id="路径"></path>
                    <path d="M12.45348,6.79158 L11.58448,6.79158 C11.19308,6.11478 10.46138,5.65948 9.62328,5.65948 C8.78518,5.65948 8.05348,6.11478 7.66208,6.79158 L6.79308,6.79158 L6.79308,1.69728 L7.66198,1.69728 C8.05348,2.37398 8.78518,2.82928 9.62328,2.82928 C10.46138,2.82928 11.19308,2.37398 11.58458,1.69728 L12.45348,1.69728 L12.45348,6.79158 Z" id="路径"></path>
                    <circle id="椭圆形" fill-rule="nonzero" cx="4.24568" cy="4.24528" r="4.24528"></circle>
                    <circle id="椭圆形" fill-rule="nonzero" cx="14.99958" cy="14.99918" r="4.24528"></circle>
                    <circle id="椭圆形" fill-rule="nonzero" cx="14.99958" cy="4.24528" r="4.24528"></circle>
                    <circle id="椭圆形" fill-rule="nonzero" transform="translate(4.245280, 14.999180) rotate(90.000000) translate(-4.245280, -14.999180) " cx="4.24528" cy="14.99918" r="4.24528"></circle>
                    <circle id="椭圆形" fill-rule="nonzero" transform="translate(4.245280, 25.754980) rotate(90.000000) translate(-4.245280, -25.754980) " cx="4.24528" cy="25.75498" r="4.24528"></circle>
                </g>
                <g id="编组-14" transform="translate(31.267980, 7.443380)">
                    <polygon id="路径" fill-rule="nonzero" points="61.2364 12.4853 58.1524 2.6289 59.7234 2.6289 62.0804 10.652 64.5754 2.6289 66.1854 2.6289 68.6804 10.652 71.0374 2.6289 72.6084 2.6289 69.5244 12.4853 67.8354 12.4853 65.3804 4.6199 62.9254 12.4853"></polygon>
                    <polygon id="路径" fill-rule="nonzero" points="45.6684 12.4848 45.6684 0 46.9824 0 46.9824 12.4848"></polygon>
                    <polygon id="路径" fill-rule="nonzero" points="34.8262 12.4848 34.8262 0 44.0254 0 44.0254 1.3578 36.2696 1.3578 36.2696 5.6955 43.1784 5.6955 43.1784 7.0722 36.2696 7.0722 36.2696 12.4848"></polygon>
                    <polygon id="路径" fill-rule="nonzero" points="21.0273 12.4848 21.0273 0 22.3415 0 22.3415 12.4848"></polygon>
                    <path d="M15.1133,12.4853 C14.1736,12.4853 13.3575,12.2689 12.6651,11.8359 C11.9727,11.3902 11.441,10.7917 11.0701,10.0403 C10.6991,9.289 10.5136,8.4612 10.5136,7.5571 C10.5136,6.6402 10.6991,5.8125 11.0701,5.0739 C11.441,4.3225 11.9727,3.7304 12.6651,3.2974 C13.3575,2.8517 14.1736,2.6289 15.1133,2.6289 C16.0654,2.6289 16.8815,2.8517 17.5616,3.2974 C18.254,3.7304 18.7857,4.3225 19.1566,5.0739 C19.5276,5.8125 19.713,6.6402 19.713,7.5571 C19.713,8.4612 19.5276,9.289 19.1566,10.0403 C18.7857,10.7917 18.254,11.3902 17.5616,11.8359 C16.8815,12.2689 16.0654,12.4853 15.1133,12.4853 Z M15.1133,11.1864 C15.8058,11.1864 16.3869,11.0209 16.8568,10.6898 C17.339,10.3587 17.7038,9.9193 17.951,9.3718 C18.1983,8.8114 18.322,8.2066 18.322,7.5571 C18.322,6.8949 18.1983,6.29 17.951,5.7424 C17.7038,5.1949 17.339,4.7555 16.8568,4.4244 C16.3869,4.0933 15.8058,3.9278 15.1133,3.9278 C14.4333,3.9278 13.8521,4.0933 13.3699,4.4244 C12.8877,4.7555 12.5229,5.1949 12.2756,5.7424 C12.0283,6.29 11.9047,6.8949 11.9047,7.5571 C11.9047,8.2066 12.0283,8.8114 12.2756,9.3718 C12.5229,9.9193 12.8877,10.3587 13.3699,10.6898 C13.8521,11.0209 14.4333,11.1864 15.1133,11.1864 Z" id="形状" fill-rule="nonzero"></path>
                    <path d="M53.2244,12.4853 C52.2854,12.4853 51.4684,12.2689 50.7764,11.8359 C50.0844,11.3902 49.5524,10.7917 49.1814,10.0403 C48.8104,9.289 48.6254,8.4612 48.6254,7.5571 C48.6254,6.6402 48.8104,5.8125 49.1814,5.0739 C49.5524,4.3225 50.0844,3.7304 50.7764,3.2974 C51.4684,2.8517 52.2854,2.6289 53.2244,2.6289 C54.1764,2.6289 54.9924,2.8517 55.6724,3.2974 C56.3654,3.7304 56.8974,4.3225 57.2684,5.0739 C57.6384,5.8125 57.8244,6.6402 57.8244,7.5571 C57.8244,8.4612 57.6384,9.289 57.2684,10.0403 C56.8974,10.7917 56.3654,11.3902 55.6724,11.8359 C54.9924,12.2689 54.1764,12.4853 53.2244,12.4853 Z M53.2244,11.1864 C53.9174,11.1864 54.4984,11.0209 54.9684,10.6898 C55.4504,10.3587 55.8154,9.9193 56.0624,9.3718 C56.3094,8.8114 56.4334,8.2066 56.4334,7.5571 C56.4334,6.8949 56.3094,6.29 56.0624,5.7424 C55.8154,5.1949 55.4504,4.7555 54.9684,4.4244 C54.4984,4.0933 53.9174,3.9278 53.2244,3.9278 C52.5444,3.9278 51.9634,4.0933 51.4814,4.4244 C50.9994,4.7555 50.6344,5.1949 50.3874,5.7424 C50.1394,6.29 50.0164,6.8949 50.0164,7.5571 C50.0164,8.2066 50.1394,8.8114 50.3874,9.3718 C50.6344,9.9193 50.9994,10.3587 51.4814,10.6898 C51.9634,11.0209 52.5444,11.1864 53.2244,11.1864 Z" id="形状" fill-rule="nonzero"></path>
                    <path d="M-1.13686838e-13,12.4848 L-1.13686838e-13,0 L5.5841,0 C6.9083,0 7.9514,0.3646 8.7134,1.0938 C9.4754,1.8105 9.8565,2.7849 9.8565,4.017 C9.8565,5.2491 9.4754,6.2298 8.7134,6.959 C7.9514,7.6757 6.9083,8.034 5.5841,8.034 L1.4054,8.034 L1.4054,12.4848 L-1.13686838e-13,12.4848 Z M1.4054,6.7139 L5.4904,6.7139 C6.4648,6.7139 7.2018,6.475 7.7015,5.9972 C8.2012,5.5195 8.4511,4.8594 8.4511,4.017 C8.4511,3.1872 8.2012,2.5334 7.7015,2.0556 C7.2018,1.5779 6.4648,1.339 5.4904,1.339 L1.4054,1.339 L1.4054,6.7139 Z" id="形状" fill-rule="nonzero"></path>
                    <polygon id="路径" points="26.4844 15.1137 28.0362 15.1137 33.3307 2.6289 31.7382 2.6289 28.5531 10.5914 25.4264 2.6289 23.8144 2.6289 27.7763 12.2034"></polygon>
                </g>
            </g>
        </g>
    </g>
</svg>
