<svg xmlns="http://www.w3.org/2000/svg" width="24" height="24" viewBox="0 0 24 24" fill="none">
  <path fill-rule="evenodd" clip-rule="evenodd" d="M8.07227 10.2031C8.07227 8.03455 9.8302 6.27661 11.9987 6.27661C14.1673 6.27661 15.9252 8.03455 15.9252 10.2031C15.9252 12.3716 14.1673 14.1295 11.9987 14.1295C9.8302 14.1295 8.07227 12.3716 8.07227 10.2031ZM11.9987 7.77661C10.6586 7.77661 9.57227 8.86298 9.57227 10.2031C9.57227 11.5432 10.6586 12.6295 11.9987 12.6295C13.3388 12.6295 14.4252 11.5432 14.4252 10.2031C14.4252 8.86298 13.3388 7.77661 11.9987 7.77661Z" fill="#395664"/>
  <path fill-rule="evenodd" clip-rule="evenodd" d="M1.89844 11.9995C1.89844 6.42084 6.42084 1.89844 11.9995 1.89844C17.5782 1.89844 22.1006 6.42084 22.1006 11.9995C22.1006 17.5782 17.5782 22.1006 11.9995 22.1006C6.42084 22.1006 1.89844 17.5782 1.89844 11.9995ZM11.9995 3.39844C7.24927 3.39844 3.39844 7.24927 3.39844 11.9995C3.39844 14.3233 4.32 16.4319 5.81759 17.9797C6.30765 16.4873 7.71228 15.4097 9.3686 15.4097H14.4448C16.1536 15.4097 17.5945 16.5568 18.0396 18.1229C19.6206 16.5633 20.6006 14.3958 20.6006 11.9995C20.6006 7.24927 16.7498 3.39844 11.9995 3.39844ZM16.6844 19.2139C16.6825 19.1917 16.6814 19.1691 16.6814 19.1464C16.6815 17.9111 15.6801 16.9097 14.4448 16.9097H9.3686C8.15144 16.9097 7.16135 17.8819 7.13249 19.0921C8.51652 20.0436 10.193 20.6006 11.9995 20.6006C13.7275 20.6006 15.3365 20.091 16.6844 19.2139Z" fill="#395664"/>
</svg>