<svg width="64" height="64" viewBox="0 0 64 64" fill="none" xmlns="http://www.w3.org/2000/svg">
<path fill-rule="evenodd" clip-rule="evenodd" d="M32.0146 6.79995C21.103 6.79995 11.8092 13.7355 8.30497 23.4414L6.80005 22.8981C10.5259 12.5783 20.4076 5.19995 32.0146 5.19995C43.6217 5.19995 53.5034 12.5783 57.2292 22.8981L55.7243 23.4414C52.2201 13.7355 42.9263 6.79995 32.0146 6.79995ZM8.48206 41.0338C12.1146 50.4902 21.282 57.2 32.0146 57.2C42.7472 57.2 51.9147 50.4902 55.5472 41.0338L57.0408 41.6076C53.1787 51.6616 43.4313 58.7999 32.0146 58.7999C20.598 58.7999 10.8506 51.6616 6.98847 41.6076L8.48206 41.0338Z" fill="#395664"/>
<path fill-rule="evenodd" clip-rule="evenodd" d="M32.0296 13.3C26.4777 13.3 21.4855 15.6456 18.0141 19.3843C17.7135 19.7081 17.2073 19.7269 16.8835 19.4263C16.5597 19.1256 16.541 18.6195 16.8416 18.2957C20.6058 14.2416 26.0184 11.7 32.0296 11.7C38.0408 11.7 43.4533 14.2416 47.2175 18.2957C47.5182 18.6195 47.4994 19.1256 47.1756 19.4263C46.8518 19.7269 46.3457 19.7081 46.045 19.3843C42.5736 15.6456 37.5814 13.3 32.0296 13.3ZM16.7431 44.4077C17.0702 44.1107 17.5761 44.135 17.8732 44.4621C21.3497 48.29 26.4022 50.7 32.0296 50.7C37.657 50.7 42.7095 48.29 46.1859 44.4621C46.483 44.135 46.9889 44.1107 47.316 44.4077C47.6431 44.7048 47.6674 45.2107 47.3704 45.5378C43.6006 49.6886 38.1226 52.2999 32.0296 52.2999C25.9365 52.2999 20.4585 49.6886 16.6887 45.5378C16.3917 45.2107 16.416 44.7048 16.7431 44.4077Z" fill="#395664"/>
<path fill-rule="evenodd" clip-rule="evenodd" d="M4.55971 21.8999H59.4401C61.7375 21.8999 63.5999 23.7623 63.5999 26.0597V37.9401C63.5999 40.2375 61.7375 42.0999 59.4401 42.0999H4.55971C2.26231 42.0999 0.399902 40.2375 0.399902 37.9401V26.0597C0.399902 23.7623 2.26231 21.8999 4.55971 21.8999ZM4.55971 23.4999C3.14597 23.4999 1.9999 24.646 1.9999 26.0597V37.9401C1.9999 39.3538 3.14597 40.4999 4.55971 40.4999H59.4401C60.8538 40.4999 61.9999 39.3538 61.9999 37.9401V26.0597C61.9999 24.646 60.8538 23.4999 59.4401 23.4999H4.55971Z" fill="#395664"/>
<path fill-rule="evenodd" clip-rule="evenodd" d="M14.7037 27H13.1637L7.88574 36.8H9.55174L10.8117 34.476H14.4797L14.8857 36.8H16.5237L14.7037 27ZM13.6117 28.974L14.2977 33.118H11.4277L13.5837 28.974H13.6117ZM19.4941 35.064L20.9221 27H22.5461L21.2021 34.616L21.8601 35.4H24.7441L25.6681 34.616L27.0121 27H28.6361L27.1801 35.302L25.4161 36.8H20.9361L19.4941 35.064ZM38.3859 27H32.4359L30.7139 36.8H36.9579L38.6519 35.372L39.8279 28.736L38.3859 27ZM37.1539 34.616L36.2299 35.4H32.5759L33.8219 28.4H37.4619L38.1199 29.184L37.1539 34.616ZM43.8415 27H45.4655L43.7295 36.8H42.1055L43.8415 27ZM51.3121 28.386H48.3721L48.6101 27H56.1141L55.8621 28.386H52.9361L51.4521 36.8H49.8281L51.3121 28.386Z" fill="#395664"/>
</svg>
