<svg width="135" height="41" viewBox="0 0 135 41" fill="none" xmlns="http://www.w3.org/2000/svg">
<g id="Layer_1" clip-path="url(#clip0_2566_164921)">
<path id="Vector" d="M129.997 40.7051H5.00078C2.25067 40.7051 0 38.4544 0 35.7043V5.70586C0 2.95574 2.25067 0.705078 5.00078 0.705078H129.999C132.75 0.705078 135 2.95574 135 5.70586V35.7064C135 38.4565 132.75 40.7072 129.999 40.7072L129.997 40.7051Z" fill="#040000"/>
<path id="Vector_2" d="M129.997 0.705078H5.00078C2.25067 0.705078 0 2.95574 0 5.70586V35.7064C0 38.4565 2.25067 40.7072 5.00078 40.7072H129.999C132.75 40.7072 135 38.4565 135 35.7064V5.70586C134.998 2.95574 132.747 0.705078 129.997 0.705078ZM129.997 1.50545C132.313 1.50545 134.198 3.39041 134.198 5.70586V35.7064C134.198 38.0218 132.313 39.9068 129.997 39.9068H5.00078C2.68534 39.9068 0.800376 38.0218 0.800376 35.7064V5.70586C0.800376 3.38832 2.68325 1.50545 5.00078 1.50545H129.999" fill="#AEACA8"/>
<path id="Vector_3" d="M106.935 30.7052H108.801V18.2043H106.935V30.7052ZM123.741 22.7056L121.601 28.1265H121.536L119.317 22.7056H117.307L120.636 30.281L118.738 34.494H120.684L125.814 22.7056H123.739H123.741ZM113.158 29.2842C112.548 29.2842 111.696 28.9791 111.696 28.2226C111.696 27.2571 112.757 26.8872 113.675 26.8872C114.494 26.8872 114.88 27.0649 115.38 27.3052C115.236 28.4629 114.239 29.2842 113.161 29.2842H113.158ZM113.384 22.434C112.034 22.434 110.634 23.0296 110.055 24.3482L111.712 25.0399C112.066 24.3482 112.726 24.1225 113.418 24.1225C114.383 24.1225 115.363 24.7014 115.38 25.7316V25.8612C115.041 25.6689 114.318 25.3784 113.434 25.3784C111.65 25.3784 109.832 26.3585 109.832 28.1933C109.832 29.8651 111.296 30.9435 112.935 30.9435C114.191 30.9435 114.88 30.3813 115.315 29.721H115.38V30.6864H117.181V25.8946C117.181 23.6753 115.526 22.4361 113.386 22.4361L113.384 22.434ZM101.853 24.2291H99.1989V19.943H101.853C103.249 19.943 104.041 21.0986 104.041 22.085C104.041 23.0714 103.249 24.227 101.853 24.227V24.2291ZM101.805 18.2022H97.3327V30.7031H99.1989V25.9678H101.805C103.874 25.9678 105.905 24.4715 105.905 22.085C105.905 19.6985 103.872 18.2022 101.805 18.2022ZM77.4236 29.2863C76.1343 29.2863 75.056 28.2059 75.056 26.7242C75.056 25.2426 76.1364 24.1309 77.4236 24.1309C78.7109 24.1309 79.6952 25.2259 79.6952 26.7242C79.6952 28.2226 78.6963 29.2863 77.4236 29.2863ZM79.5656 23.4057H79.5009C79.0829 22.9063 78.2763 22.4549 77.2606 22.4549C75.1333 22.4549 73.1856 24.3231 73.1856 26.7242C73.1856 29.1254 75.1354 30.9623 77.2606 30.9623C78.2763 30.9623 79.0808 30.5109 79.5009 29.9947H79.5656V30.607C79.5656 32.2349 78.6963 33.1043 77.2941 33.1043C76.151 33.1043 75.4405 32.283 75.1521 31.5892L73.5242 32.2663C73.9923 33.3947 75.2315 34.7803 77.2941 34.7803C79.4841 34.7803 81.3378 33.4909 81.3378 30.35V22.714H79.5656V23.4078V23.4057ZM82.6271 30.7052H84.4954V18.2043H82.6271V30.7052ZM87.2518 26.5801C87.2037 24.9375 88.5244 24.0995 89.4753 24.0995C90.2171 24.0995 90.8441 24.4694 91.0551 25.0023L87.2539 26.5801H87.2518ZM93.0508 25.1632C92.6956 24.2124 91.6173 22.457 89.4105 22.457C87.2037 22.457 85.3982 24.181 85.3982 26.7096C85.3982 29.094 87.2016 30.9623 89.6195 30.9623C91.5692 30.9623 92.6956 29.7711 93.1637 29.0773L91.7134 28.1098C91.2307 28.8182 90.5703 29.2863 89.6195 29.2863C88.6686 29.2863 87.9915 28.8516 87.5569 27.9969L93.2431 25.6438L93.0487 25.1611L93.0508 25.1632ZM47.7429 23.761V25.5644H52.0603C51.9307 26.5801 51.5922 27.3198 51.0781 27.836C50.4491 28.465 49.4669 29.1567 47.7429 29.1567C45.0847 29.1567 43.0075 27.0147 43.0075 24.3566C43.0075 21.6984 45.0847 19.5564 47.7429 19.5564C49.1764 19.5564 50.2234 20.1206 50.9966 20.8458L52.2693 19.5731C51.1889 18.5429 49.7553 17.7529 47.7429 17.7529C44.1025 17.7529 41.041 20.7162 41.041 24.3586C41.041 28.0011 44.1025 30.9644 47.7429 30.9644C49.7093 30.9644 51.191 30.3207 52.3508 29.1107C53.5419 27.9196 53.9139 26.2436 53.9139 24.8894C53.9139 24.4715 53.8826 24.0849 53.8178 23.761H47.7449H47.7429ZM58.8227 29.2863C57.5334 29.2863 56.4216 28.2226 56.4216 26.7096C56.4216 25.1966 57.5334 24.133 58.8227 24.133C60.1121 24.133 61.2239 25.1799 61.2239 26.7096C61.2239 28.2393 60.1121 29.2863 58.8227 29.2863ZM58.8227 22.457C56.4697 22.457 54.5534 24.2458 54.5534 26.7096C54.5534 29.1734 56.4697 30.9623 58.8227 30.9623C61.1758 30.9623 63.0921 29.1588 63.0921 26.7096C63.0921 24.2604 61.1758 22.457 58.8227 22.457ZM68.1347 29.2863C66.8453 29.2863 65.7336 28.2226 65.7336 26.7096C65.7336 25.1966 66.8453 24.133 68.1347 24.133C69.4241 24.133 70.5358 25.1799 70.5358 26.7096C70.5358 28.2393 69.4241 29.2863 68.1347 29.2863ZM68.1347 22.457C65.7816 22.457 63.8653 24.2458 63.8653 26.7096C63.8653 29.1734 65.7816 30.9623 68.1347 30.9623C70.4878 30.9623 72.4041 29.1588 72.4041 26.7096C72.4041 24.2604 70.4878 22.457 68.1347 22.457Z" fill="white"/>
<path id="Vector_4" d="M20.7176 20.129L10.0703 31.4283C10.0703 31.4283 10.0703 31.4325 10.0703 31.4346C10.3963 32.6613 11.5164 33.5641 12.8476 33.5641C13.3784 33.5641 13.8778 33.4199 14.3062 33.1691L14.3397 33.1482L26.3244 26.2332L20.7155 20.127L20.7176 20.129Z" fill="#E63C26"/>
<path id="Vector_5" d="M31.4886 18.2043L31.4781 18.198L26.3039 15.1992L20.4756 20.386L26.3248 26.2331L31.4719 23.2636C32.3747 22.7767 32.9869 21.8258 32.9869 20.7287C32.9869 19.6316 32.383 18.6933 31.4886 18.2043Z" fill="#F9C200"/>
<path id="Vector_6" d="M10.0709 9.98145C10.0061 10.2176 9.97266 10.4663 9.97266 10.7212V30.6888C9.97266 30.9459 10.0061 31.1925 10.0709 31.4286L21.0839 20.4177L10.0709 9.98145Z" fill="#557ABD"/>
<path id="Vector_7" d="M20.7949 20.7061L26.3056 15.1975L14.3355 8.25739C13.9008 7.99617 13.393 7.8457 12.8497 7.8457C11.5185 7.8457 10.3963 8.75057 10.0703 9.97934C10.0703 9.97934 10.0703 9.97934 10.0703 9.98143L20.7949 20.7061Z" fill="#07A346"/>
<path id="Vector_8" d="M45.185 10.8988C44.6542 11.7598 44.0189 12.5853 43.4192 13.2561L47.3416 13.0032C47.001 12.5163 46.6374 12.021 46.28 11.6114L47.0114 11.2813C47.7867 12.1339 48.6122 13.2728 49.003 14.046L48.2026 14.464C48.1065 14.2466 47.9686 13.9938 47.8035 13.7242C43.2624 14.0899 42.7316 14.115 42.3576 14.2633C42.3137 14.0899 42.1841 13.6803 42.0796 13.463C42.2802 13.4107 42.4704 13.2185 42.7233 12.9238C42.9573 12.6898 43.6281 11.8183 44.1589 10.8967H41.5488V10.088H45.0011V8.62727H42.2259V7.81854H45.0011V6.53125H45.8537V7.81854H48.7062V8.62727H45.8537V10.088H49.3415V10.8967H45.185V10.8988Z" fill="white"/>
<path id="Vector_9" d="M56.1662 11.7433C55.8005 11.3964 55.0524 10.8217 54.5049 10.4122L54.9667 9.94196C55.4975 10.316 56.2707 10.8635 56.6532 11.1937L56.1662 11.7412V11.7433ZM53.088 11.9941V12.8551H54.9918V11.9941H53.088ZM53.088 13.4381V13.8205H52.4089V11.4821C52.2605 11.595 52.1226 11.6911 51.9826 11.7768C51.9303 11.6472 51.7485 11.2731 51.644 11.1248C52.1581 10.828 52.7662 10.4122 53.157 10.0193L53.7317 10.2972C53.3911 10.6713 52.9313 11.0725 52.4966 11.4111H55.6543V13.4381H53.088ZM57.8715 8.11552H52.8352C53.0003 8.40181 53.226 8.79469 53.3221 9.02038L52.6513 9.2816H54.7473C54.9458 8.9347 55.1736 8.46451 55.3032 8.13432L56.1725 8.31613C55.9719 8.64631 55.7567 8.98695 55.5477 9.2816H57.4264V13.6993C57.4264 14.0985 57.3302 14.2657 57.0523 14.3702C56.7744 14.4746 56.3209 14.483 55.5999 14.483C55.5665 14.2907 55.4704 14.04 55.3659 13.8644C55.8611 13.8812 56.3564 13.8812 56.4797 13.8728C56.6281 13.8728 56.6803 13.8289 56.6803 13.6993V9.9336H51.4789V14.5081H50.7141V9.2816H52.5489C52.4444 9.02038 52.2271 8.60243 52.0703 8.31613L52.645 8.11552H50.2627V7.42799H53.786C53.6983 7.19393 53.5854 6.92436 53.4809 6.70702L54.2813 6.49805C54.4297 6.78434 54.5948 7.15005 54.7076 7.42799H57.8736V8.11552H57.8715Z" fill="white"/>
<path id="Vector_10" d="M65.1455 12.0208H61.7622V13.3603H65.1455V12.0208ZM63.6493 9.53397H66.3806V10.2737H63.6493V11.2747H65.971V14.4052H65.1435V14.0834H61.7601V14.4219H60.9681V11.2727H62.8134V8.60194H63.6493V9.53189V9.53397ZM66.6251 7.55916V8.32401H60.3266V9.77639C60.3266 11.141 60.197 13.2036 59.405 14.5327C59.2566 14.3927 58.8826 14.1419 58.6924 14.0625C59.4322 12.8191 59.4928 11.0281 59.4928 9.76594V7.55707H62.8155C62.711 7.27913 62.571 6.97403 62.4247 6.73161L63.2251 6.5498C63.434 6.85491 63.6158 7.24569 63.7308 7.55916H66.6272H66.6251Z" fill="white"/>
<path id="Vector_11" d="M71.8503 7.9944V9.4635L71.9986 9.29005C72.9892 9.7686 74.3559 10.5418 75.0246 11.0642L74.4332 11.804C73.8773 11.3338 72.7886 10.6567 71.8503 10.1343V14.5082H70.9893V7.9944H67.7627V7.16895H75.4425V7.9944H71.8503Z" fill="white"/>
<path id="Vector_12" d="M83.35 8.22801C83.141 7.90619 82.698 7.41092 82.3239 7.05357L82.907 6.67951C83.2894 7.00133 83.7512 7.48824 83.9602 7.81006L83.35 8.22801ZM83.8641 9.72428C83.5506 10.7942 83.1243 11.7931 82.5768 12.6646C82.7857 13.2999 83.0637 13.6739 83.3688 13.6739C83.5506 13.6739 83.6467 13.2998 83.6906 12.3427C83.8557 12.5162 84.1169 12.6917 84.3175 12.7607C84.1963 14.0751 83.9518 14.4471 83.2998 14.4471C82.7607 14.4471 82.3511 14.0647 82.046 13.4127C81.6991 13.8557 81.3062 14.2381 80.8799 14.5683C80.7587 14.3865 80.5225 14.1504 80.324 14.002C80.8632 13.6279 81.3334 13.141 81.743 12.5747C81.4734 11.6448 81.325 10.4432 81.2477 9.09526H78.1695L78.8403 9.27707C78.763 9.47769 78.6668 9.66786 78.5791 9.86847H80.9697V10.5121H78.2468C78.0817 10.8172 77.9083 11.1119 77.7348 11.3647H78.7692V10.7483H79.5257V11.3647H80.8235L80.8151 12.0355H79.5278V12.7147L80.999 12.5935L80.9906 13.2539C80.5121 13.3061 80.0168 13.3584 79.5278 13.3939V14.4806H78.7713V13.4712L76.5959 13.6718L76.5186 12.9404C77.1267 12.9049 77.9103 12.8443 78.7713 12.7753V12.0355H77.6826C77.3357 12.0355 77.0556 12.0878 76.9783 12.1756C76.9344 12.0105 76.8299 11.6448 76.7255 11.4525C76.8822 11.417 77.0034 11.2519 77.1518 11.0178C77.2124 10.9301 77.3169 10.7483 77.4297 10.5142H76.552V9.87056H77.7432C77.8476 9.6177 77.9438 9.36693 78.0295 9.09735H76.4287V8.45371H78.4202V7.82678H76.8634V7.1915H78.4202V6.54785H79.1955V7.1915H80.6834V7.82678H79.1955V8.45371H81.2122C81.1954 7.84559 81.1787 7.20194 81.1787 6.54994H81.9791C81.9707 7.2103 81.9707 7.85395 81.9958 8.45371H84.1963V9.09735H82.023C82.0836 10.0628 82.1881 10.9322 82.3176 11.6364C82.6666 10.9844 82.9446 10.2718 83.1431 9.5153L83.8661 9.72428H83.8641Z" fill="white"/>
</g>
<defs>
<clipPath id="clip0_2566_164921">
<rect width="134.998" height="40" fill="white" transform="translate(0 0.705078)"/>
</clipPath>
</defs>
</svg>
