<svg width="135" height="40" viewBox="0 0 135 40" fill="none" xmlns="http://www.w3.org/2000/svg">
<g id="Layer_1" clip-path="url(#clip0_2566_164922)">
<path id="Vector" d="M129.997 40H5.00078C2.25067 40 0 37.7493 0 34.9992V5.00078C0 2.25067 2.25067 0 5.00078 0H129.999C132.75 0 135 2.25067 135 5.00078V35.0013C135 37.7514 132.75 40.0021 129.999 40.0021L129.997 40Z" fill="#040000"/>
<path id="Vector_2" d="M129.997 0H5.00078C2.25067 0 0 2.25067 0 5.00078V35.0013C0 37.7514 2.25067 40.0021 5.00078 40.0021H129.999C132.75 40.0021 135 37.7514 135 35.0013V5.00078C134.998 2.25067 132.747 0 129.997 0ZM129.997 0.800376C132.313 0.800376 134.198 2.68534 134.198 5.00078V35.0013C134.198 37.3168 132.313 39.2017 129.997 39.2017H5.00078C2.68534 39.2017 0.800376 37.3168 0.800376 35.0013V5.00078C0.800376 2.68325 2.68325 0.800376 5.00078 0.800376H129.999" fill="#AEACA8"/>
<path id="Vector_3" d="M46.0729 12.7538H48.1835V13.3139H43.3792V12.7538H45.4815V10.5073H43.6906V9.94726H45.4815V8.41965H46.0729V9.94726H47.8722V10.5073H46.0729V12.7538ZM48.1835 7.43538V8.00379H43.8264C43.5464 8.57847 43.235 9.1239 42.8588 9.63589V13.4664H42.2758V10.3401C41.9958 10.6432 41.6844 10.9085 41.3479 11.1468C41.2915 10.988 41.139 10.7393 41.0449 10.6118C41.9561 9.96398 42.6603 9.0215 43.1556 8.00588H41.2372V7.43747H43.421C43.5882 7.02996 43.7323 6.60574 43.8452 6.19824L44.4533 6.35079C44.3488 6.71023 44.213 7.07803 44.0688 7.43747H48.1856L48.1835 7.43538Z" fill="white"/>
<path id="Vector_4" d="M46.0729 12.7538H48.1835V13.3139H43.3792V12.7538H45.4815V10.5073H43.6906V9.94726H45.4815V8.41965H46.0729V9.94726H47.8722V10.5073H46.0729V12.7538ZM48.1835 7.43538V8.00379H43.8264C43.5464 8.57847 43.235 9.1239 42.8588 9.63589V13.4664H42.2758V10.3401C41.9958 10.6432 41.6844 10.9085 41.3479 11.1468C41.2915 10.988 41.139 10.7393 41.0449 10.6118C41.9561 9.96398 42.6603 9.0215 43.1556 8.00588H41.2372V7.43747H43.421C43.5882 7.02996 43.7323 6.60574 43.8452 6.19824L44.4533 6.35079C44.3488 6.71023 44.213 7.07803 44.0688 7.43747H48.1856L48.1835 7.43538Z" stroke="white" stroke-width="0.200616" stroke-miterlimit="10"/>
<path id="Vector_5" d="M55.6148 12.6573C55.9429 12.6573 55.9994 12.3689 56.0391 11.2425C56.2 11.3553 56.4403 11.4661 56.6158 11.5142C56.5364 12.7931 56.3755 13.2403 55.6629 13.2403H54.455C53.7111 13.2403 53.5126 13.0083 53.5126 12.1453V6.2041H54.1374V8.65956H56.0788V9.22798H54.1374V12.162C54.1374 12.5779 54.1938 12.6573 54.5282 12.6573H55.6148ZM53.1134 12.0889L53.1615 12.6886C51.8031 12.9436 50.3549 13.209 49.3539 13.4012L49.2578 12.7701C49.4501 12.7388 49.6653 12.7074 49.8973 12.6656V7.81321H50.4803V12.5611L51.3768 12.4107V6.20619H51.9849V8.65329H53.1134V9.22798H51.9849V12.2978L53.1134 12.0889Z" fill="white"/>
<path id="Vector_6" d="M55.6148 12.6573C55.9429 12.6573 55.9994 12.3689 56.0391 11.2425C56.2 11.3553 56.4403 11.4661 56.6158 11.5142C56.5364 12.7931 56.3755 13.2403 55.6629 13.2403H54.455C53.7111 13.2403 53.5126 13.0083 53.5126 12.1453V6.2041H54.1374V8.65956H56.0788V9.22798H54.1374V12.162C54.1374 12.5779 54.1938 12.6573 54.5282 12.6573H55.6148ZM53.1134 12.0889L53.1615 12.6886C51.8031 12.9436 50.3549 13.209 49.3539 13.4012L49.2578 12.7701C49.4501 12.7388 49.6653 12.7074 49.8973 12.6656V7.81321H50.4803V12.5611L51.3768 12.4107V6.20619H51.9849V8.65329H53.1134V9.22798H51.9849V12.2978L53.1134 12.0889Z" stroke="white" stroke-width="0.200616" stroke-miterlimit="10"/>
<path id="Vector_7" d="M61.1863 7.37935V8.80247L61.2908 8.68336C62.2417 9.13892 63.4976 9.8578 64.1287 10.3384L63.7128 10.8755C63.1695 10.4262 62.0975 9.77212 61.1863 9.28521V13.4898H60.5552V7.38144H57.5V6.79004H64.5613V7.38144H61.1863V7.37935Z" fill="white"/>
<path id="Vector_8" d="M61.1863 7.37935V8.80247L61.2908 8.68336C62.2417 9.13892 63.4976 9.8578 64.1287 10.3384L63.7128 10.8755C63.1695 10.4262 62.0975 9.77212 61.1863 9.28521V13.4898H60.5552V7.38144H57.5V6.79004H64.5613V7.38144H61.1863V7.37935Z" stroke="white" stroke-width="0.200616" stroke-miterlimit="10"/>
<path id="Vector_9" d="M72.1115 7.71513C71.8879 7.40376 71.4156 6.92311 71.0081 6.59502L71.4323 6.30664C71.8398 6.61801 72.3288 7.07358 72.5441 7.38495L72.1115 7.71304V7.71513ZM68.9601 11.0023H67.9445V11.4579H68.9601V11.0023ZM68.9601 10.2187H67.9445V10.6659H68.9601V10.2187ZM66.4984 11.4579H67.4827V11.0023H66.4984V11.4579ZM66.4984 10.6659H67.4827V10.2187H66.4984V10.6659ZM72.4082 9.0672C72.0885 10.0515 71.6496 10.971 71.0896 11.7546C71.3383 12.4986 71.658 12.9228 72.0321 12.9228C72.2411 12.9228 72.3372 12.5383 72.3852 11.5561C72.5044 11.6836 72.7133 11.8111 72.8638 11.8591C72.7677 13.1213 72.5608 13.4975 71.9757 13.4975C71.3905 13.4975 70.9851 13.0503 70.6737 12.298C70.2725 12.7619 69.8337 13.1694 69.3384 13.4975C69.2422 13.3616 69.0584 13.1778 68.9142 13.0586C69.0918 12.9541 69.2569 12.835 69.4178 12.7076H67.978V13.5079H67.4513V12.7076H65.7398V12.2436H67.4513V11.8111H66.0512V9.86758H67.443V9.435H65.861V8.98779H67.443V8.48416H67.9863V8.98779H69.5933V9.435H67.9863V9.86758H69.4241V11.8111H67.9759V12.2436H69.6226V12.532C69.9193 12.2771 70.1994 11.9887 70.446 11.6689C70.1994 10.8142 70.0468 9.70249 69.959 8.46326H65.6416V7.95963H67.4409V7.32017H66.001V6.84161H67.4409V6.20215H68.0093V6.84161H69.4491V7.32017H68.0093V7.95963H69.9361C69.9047 7.39958 69.888 6.81654 69.888 6.21678H70.4877C70.4794 6.8249 70.4961 7.40794 70.5191 7.95963H72.7593V8.46326H70.5442C70.6152 9.4559 70.7281 10.3336 70.889 11.0462C71.3048 10.39 71.6392 9.66278 71.8733 8.89375L72.4082 9.06929V9.0672Z" fill="white"/>
<path id="Vector_10" d="M72.1115 7.71513C71.8879 7.40376 71.4156 6.92311 71.0081 6.59502L71.4323 6.30664C71.8398 6.61801 72.3288 7.07358 72.5441 7.38495L72.1115 7.71304V7.71513ZM68.9601 11.0023H67.9445V11.4579H68.9601V11.0023ZM68.9601 10.2187H67.9445V10.6659H68.9601V10.2187ZM66.4984 11.4579H67.4827V11.0023H66.4984V11.4579ZM66.4984 10.6659H67.4827V10.2187H66.4984V10.6659ZM72.4082 9.0672C72.0885 10.0515 71.6496 10.971 71.0896 11.7546C71.3383 12.4986 71.658 12.9228 72.0321 12.9228C72.2411 12.9228 72.3372 12.5383 72.3852 11.5561C72.5044 11.6836 72.7133 11.8111 72.8638 11.8591C72.7677 13.1213 72.5608 13.4975 71.9757 13.4975C71.3905 13.4975 70.9851 13.0503 70.6737 12.298C70.2725 12.7619 69.8337 13.1694 69.3384 13.4975C69.2422 13.3616 69.0584 13.1778 68.9142 13.0586C69.0918 12.9541 69.2569 12.835 69.4178 12.7076H67.978V13.5079H67.4513V12.7076H65.7398V12.2436H67.4513V11.8111H66.0512V9.86758H67.443V9.435H65.861V8.98779H67.443V8.48416H67.9863V8.98779H69.5933V9.435H67.9863V9.86758H69.4241V11.8111H67.9759V12.2436H69.6226V12.532C69.9193 12.2771 70.1994 11.9887 70.446 11.6689C70.1994 10.8142 70.0468 9.70249 69.959 8.46326H65.6416V7.95963H67.4409V7.32017H66.001V6.84161H67.4409V6.20215H68.0093V6.84161H69.4491V7.32017H68.0093V7.95963H69.9361C69.9047 7.39958 69.888 6.81654 69.888 6.21678H70.4877C70.4794 6.8249 70.4961 7.40794 70.5191 7.95963H72.7593V8.46326H70.5442C70.6152 9.4559 70.7281 10.3336 70.889 11.0462C71.3048 10.39 71.6392 9.66278 71.8733 8.89375L72.4082 9.06929V9.0672Z" stroke="white" stroke-width="0.200616" stroke-miterlimit="10"/>
<path id="Vector_11" d="M106.935 30.0002H108.801V17.4992H106.935V30.0002ZM123.741 22.0006L121.601 27.4214H121.536L119.317 22.0006H117.307L120.636 29.5759L118.738 33.7889H120.684L125.814 22.0006H123.739H123.741ZM113.161 28.5791C112.548 28.5791 111.696 28.274 111.696 27.5175C111.696 26.5521 112.757 26.1822 113.675 26.1822C114.494 26.1822 114.88 26.3598 115.38 26.6001C115.236 27.7578 114.239 28.5791 113.161 28.5791ZM113.384 21.7289C112.034 21.7289 110.634 22.3245 110.055 23.6431L111.712 24.3348C112.066 23.6431 112.726 23.4174 113.418 23.4174C114.383 23.4174 115.363 23.9963 115.38 25.0265V25.1561C115.041 24.9638 114.318 24.6734 113.434 24.6734C111.65 24.6734 109.832 25.6535 109.832 27.4883C109.832 29.1601 111.296 30.2384 112.935 30.2384C114.191 30.2384 114.88 29.6762 115.315 29.0159H115.38V29.9813H117.181V25.1895C117.181 22.9702 115.526 21.731 113.386 21.731L113.384 21.7289ZM101.853 23.524H99.1989V19.2379H101.853C103.249 19.2379 104.041 20.3935 104.041 21.3799C104.041 22.3663 103.249 23.5219 101.853 23.5219V23.524ZM101.805 17.4971H97.3327V29.9981H99.1989V25.2627H101.805C103.874 25.2627 105.905 23.7664 105.905 21.3799C105.905 18.9934 103.872 17.4971 101.805 17.4971ZM77.4236 28.5812C76.1343 28.5812 75.056 27.5008 75.056 26.0192C75.056 24.5375 76.1364 23.4258 77.4236 23.4258C78.7109 23.4258 79.6952 24.5208 79.6952 26.0192C79.6952 27.5175 78.6963 28.5812 77.4236 28.5812ZM79.5656 22.7006H79.5009C79.0829 22.2012 78.2763 21.7498 77.2606 21.7498C75.1333 21.7498 73.1856 23.618 73.1856 26.0192C73.1856 28.4203 75.1354 30.2551 77.2606 30.2551C78.2763 30.2551 79.0808 29.8037 79.5009 29.2875H79.5656V29.8998C79.5656 31.5278 78.6963 32.3971 77.2941 32.3971C76.151 32.3971 75.4405 31.5758 75.1521 30.882L73.5242 31.5591C73.9923 32.6876 75.2315 34.0731 77.2941 34.0731C79.4841 34.0731 81.3378 32.7837 81.3378 29.6428V22.0068H79.5656V22.7006ZM82.6271 30.0002H84.4954V17.4992H82.6271V30.0002ZM87.2518 25.875C87.2037 24.2324 88.5244 23.3944 89.4753 23.3944C90.2171 23.3944 90.8441 23.7643 91.053 24.2972L87.2518 25.875ZM93.0508 24.4581C92.6956 23.5073 91.6173 21.7519 89.4105 21.7519C87.2037 21.7519 85.3982 23.4759 85.3982 26.0045C85.3982 28.389 87.2016 30.2572 89.6195 30.2572C91.5692 30.2572 92.6956 29.066 93.1637 28.3722L91.7134 27.4047C91.2307 28.1131 90.5703 28.5812 89.6195 28.5812C88.6686 28.5812 87.9915 28.1465 87.5569 27.2918L93.2431 24.9388L93.0508 24.456V24.4581ZM47.7429 23.0559V24.8594H52.0603C51.9307 25.875 51.5922 26.6147 51.0781 27.1309C50.4491 27.7599 49.4669 28.4516 47.7429 28.4516C45.0847 28.4516 43.0054 26.3096 43.0054 23.6515C43.0054 20.9933 45.0826 18.8513 47.7429 18.8513C49.1764 18.8513 50.2234 19.4155 50.9966 20.1407L52.2693 18.868C51.1889 17.8378 49.7553 17.0479 47.7429 17.0479C44.1025 17.0479 41.041 20.0111 41.041 23.6536C41.041 27.296 44.1025 30.2593 47.7429 30.2593C49.7072 30.2593 51.191 29.6156 52.3508 28.4057C53.5419 27.2145 53.9139 25.5385 53.9139 24.1844C53.9139 23.7664 53.8826 23.3798 53.8178 23.0559H47.7449H47.7429ZM58.8227 28.5812C57.5334 28.5812 56.4216 27.5175 56.4216 26.0045C56.4216 24.4916 57.5334 23.4279 58.8227 23.4279C60.1121 23.4279 61.2239 24.4748 61.2239 26.0045C61.2239 27.5342 60.1121 28.5812 58.8227 28.5812ZM58.8227 21.7519C56.4697 21.7519 54.5534 23.5407 54.5534 26.0045C54.5534 28.4684 56.4697 30.2572 58.8227 30.2572C61.1758 30.2572 63.0921 28.4537 63.0921 26.0045C63.0921 23.5553 61.1758 21.7519 58.8227 21.7519ZM68.1347 28.5812C66.8453 28.5812 65.7336 27.5175 65.7336 26.0045C65.7336 24.4916 66.8453 23.4279 68.1347 23.4279C69.4241 23.4279 70.5358 24.4748 70.5358 26.0045C70.5358 27.5342 69.4241 28.5812 68.1347 28.5812ZM68.1347 21.7519C65.7816 21.7519 63.8653 23.5407 63.8653 26.0045C63.8653 28.4684 65.7816 30.2572 68.1347 30.2572C70.4878 30.2572 72.4041 28.4537 72.4041 26.0045C72.4041 23.5553 70.4878 21.7519 68.1347 21.7519Z" fill="white"/>
<path id="Vector_12" d="M12.2101 13.0922L18.3749 19.2779C18.7929 19.6979 18.7929 20.3771 18.3749 20.7971L12.2018 27.0935L12.2101 13.0922ZM14.3396 10.0641L21.2462 14.0451L23.6975 15.4578L21.3967 17.767C20.9788 18.187 20.3017 18.187 19.8837 17.767L12.4734 10.3337C12.9144 9.87815 13.7148 9.69425 14.3396 10.0641ZM13.5664 30.1509C13.1505 30.1509 12.7827 29.967 12.5173 29.6995L19.8837 22.3122C20.3017 21.8922 20.9788 21.8922 21.3967 22.3122L23.6641 24.5879L14.3083 29.9523C14.0847 30.084 13.8276 30.1509 13.5664 30.1509ZM29.2939 21.2924L25.5867 23.4866L22.9076 20.7992C22.4896 20.3792 22.4896 19.7 22.9076 19.28L25.6159 16.5633L29.3043 18.7366L29.3294 18.7492C29.7975 19.002 30.0859 19.4868 30.0859 20.0114C30.0859 20.5359 29.7912 21.0249 29.2939 21.2924ZM30.4579 16.883L15.4158 8.21679C14.8558 7.88452 14.2163 7.70898 13.5664 7.70898C11.8925 7.70898 10.4255 8.84999 10.087 10.3922C10.0493 10.5406 9.96574 10.923 9.97201 11.2887V28.7486C9.98455 29.1018 10.0807 29.5804 10.0974 29.6389C10.5153 31.1999 11.9427 32.2908 13.5664 32.2908C14.2079 32.2908 14.837 32.1194 15.3761 31.8039L30.4244 23.1753C31.5926 22.5483 32.3178 21.3405 32.3178 20.0197C32.3178 18.699 31.6052 17.512 30.4558 16.883H30.4579Z" fill="white"/>
<path id="Vector_13" d="M20.7176 19.424L10.0703 30.7233C10.0703 30.7233 10.0703 30.7274 10.0703 30.7295C10.3963 31.9562 11.5164 32.859 12.8476 32.859C13.3784 32.859 13.8778 32.7148 14.3062 32.464L14.3397 32.4431L26.3244 25.5281L20.7155 19.4219L20.7176 19.424Z" fill="#E63C26"/>
<path id="Vector_14" d="M31.4886 17.4992L31.4781 17.4929L26.3039 14.4941L20.4756 19.6809L26.3248 25.528L31.4719 22.5585C32.3747 22.0716 32.9869 21.1208 32.9869 20.0236C32.9869 18.9265 32.383 17.9882 31.4886 17.4992Z" fill="#F9C200"/>
<path id="Vector_15" d="M10.0709 9.27637C10.0061 9.51251 9.97266 9.76119 9.97266 10.0161V29.9837C9.97266 30.2408 10.0061 30.4874 10.0709 30.7235L21.0839 19.7126L10.0709 9.27637Z" fill="#557ABD"/>
<path id="Vector_16" d="M20.7949 20.001L26.3056 14.4924L14.3355 7.55231C13.9008 7.29109 13.393 7.14062 12.8497 7.14062C11.5185 7.14062 10.3963 8.04549 10.0703 9.27427C10.0703 9.27427 10.0703 9.27427 10.0703 9.27635L20.7949 20.001Z" fill="#07A346"/>
</g>
<defs>
<clipPath id="clip0_2566_164922">
<rect width="134.998" height="40" fill="white"/>
</clipPath>
</defs>
</svg>
