<svg width="136" height="40" viewBox="0 0 136 40" fill="none" xmlns="http://www.w3.org/2000/svg">
<g id="artwork" clip-path="url(#clip0_2371_237559)">
<path id="Vector" d="M130.664 0H5.66406C2.90264 0 0.664062 2.23858 0.664062 5V35C0.664062 37.7614 2.90264 40 5.66406 40H130.664C133.425 40 135.664 37.7614 135.664 35V5C135.664 2.23858 133.425 0 130.664 0Z" fill="black"/>
<path id="Vector_2" d="M130.664 0.8C132.984 0.8 134.864 2.68 134.864 5V35C134.864 37.32 132.984 39.2 130.664 39.2H5.66406C3.34406 39.2 1.46406 37.32 1.46406 35V5C1.46406 2.68 3.34406 0.8 5.66406 0.8H130.664ZM130.664 0H5.66406C2.91406 0 0.664062 2.25 0.664062 5V35C0.664062 37.75 2.91406 40 5.66406 40H130.664C133.414 40 135.664 37.75 135.664 35V5C135.664 2.25 133.414 0 130.664 0Z" fill="#A6A6A6"/>
<g id="Group">
<path id="Vector_3" d="M46.6437 12.75C46.3137 12.87 45.6737 13.06 44.9137 13.06C44.0637 13.06 43.3537 12.84 42.8037 12.31C42.3137 11.84 42.0137 11.09 42.0137 10.21C42.0137 8.53004 43.1737 7.29004 45.0737 7.29004C45.7237 7.29004 46.2337 7.43004 46.4837 7.55004L46.3037 8.14004C46.0037 8.01004 45.6237 7.90004 45.0537 7.90004C43.6837 7.90004 42.7837 8.75004 42.7837 10.17C42.7837 11.59 43.6437 12.45 44.9637 12.45C45.4437 12.45 45.7637 12.38 45.9337 12.3V10.62H44.7837V10.03H46.6437V12.74V12.75Z" fill="white" stroke="white" stroke-width="0.2" stroke-miterlimit="10"/>
<path id="Vector_4" d="M50.8438 10.3496H48.6438V12.3896H51.0938V12.9996H47.9238V7.34961H50.9738V7.95961H48.6538V9.73961H50.8538V10.3396L50.8438 10.3496Z" fill="white" stroke="white" stroke-width="0.2" stroke-miterlimit="10"/>
<path id="Vector_5" d="M53.4241 7.96961H51.7041V7.34961H55.8841V7.96961H54.1541V12.9996H53.4141V7.96961H53.4241Z" fill="white" stroke="white" stroke-width="0.2" stroke-miterlimit="10"/>
<path id="Vector_6" d="M59.354 7.34961V12.9996H58.624V7.34961H59.354Z" fill="white" stroke="white" stroke-width="0.2" stroke-miterlimit="10"/>
<path id="Vector_7" d="M61.8636 7.96961H60.1436V7.34961H64.3236V7.96961H62.5936V12.9996H61.8536V7.96961H61.8636Z" fill="white" stroke="white" stroke-width="0.2" stroke-miterlimit="10"/>
<path id="Vector_8" d="M71.8934 10.1198C71.8934 12.0598 70.7134 13.0898 69.2734 13.0898C67.8334 13.0898 66.7334 11.9298 66.7334 10.2298C66.7334 8.43976 67.8434 7.25977 69.3534 7.25977C70.8634 7.25977 71.8934 8.43977 71.8934 10.1198ZM67.5134 10.2098C67.5134 11.4198 68.1634 12.4998 69.3134 12.4998C70.4634 12.4998 71.1234 11.4398 71.1234 10.1498C71.1234 9.02977 70.5334 7.84977 69.3234 7.84977C68.1134 7.84977 67.5134 8.95977 67.5134 10.1998V10.2098Z" fill="white" stroke="white" stroke-width="0.2" stroke-miterlimit="10"/>
<path id="Vector_9" d="M73.0137 12.9996V7.34961H73.8137L75.6237 10.2096C76.0437 10.8696 76.3737 11.4696 76.6337 12.0396H76.6537C76.5837 11.2796 76.5737 10.5896 76.5737 9.70961V7.34961H77.2637V12.9996H76.5237L74.7337 10.1296C74.3437 9.49961 73.9637 8.85961 73.6737 8.24961H73.6437C73.6837 8.96961 73.7037 9.64961 73.7037 10.5896V12.9996H73.0137Z" fill="white" stroke="white" stroke-width="0.2" stroke-miterlimit="10"/>
</g>
<path id="Vector_10" d="M68.8041 21.7498C66.4541 21.7498 64.5341 23.5398 64.5341 25.9998C64.5341 28.4598 66.4541 30.2498 68.8041 30.2498C71.1541 30.2498 73.0741 28.4498 73.0741 25.9998C73.0741 23.5498 71.1541 21.7498 68.8041 21.7498ZM68.8041 28.5798C67.5141 28.5798 66.4041 27.5198 66.4041 25.9998C66.4041 24.4798 67.5141 23.4198 68.8041 23.4198C70.0941 23.4198 71.2041 24.4698 71.2041 25.9998C71.2041 27.5298 70.0941 28.5798 68.8041 28.5798ZM59.4841 21.7498C57.1341 21.7498 55.2141 23.5398 55.2141 25.9998C55.2141 28.4598 57.1341 30.2498 59.4841 30.2498C61.8341 30.2498 63.7541 28.4498 63.7541 25.9998C63.7541 23.5498 61.8341 21.7498 59.4841 21.7498ZM59.4841 28.5798C58.1941 28.5798 57.0841 27.5198 57.0841 25.9998C57.0841 24.4798 58.1941 23.4198 59.4841 23.4198C60.7741 23.4198 61.8841 24.4698 61.8841 25.9998C61.8841 27.5298 60.7741 28.5798 59.4841 28.5798ZM48.4041 23.0598V24.8598H52.7241C52.5941 25.8698 52.2541 26.6198 51.7441 27.1298C51.1141 27.7598 50.1341 28.4498 48.4141 28.4498C45.7541 28.4498 43.6741 26.3098 43.6741 23.6498C43.6741 20.9898 45.7541 18.8498 48.4141 18.8498C49.8441 18.8498 50.8941 19.4098 51.6641 20.1398L52.9341 18.8698C51.8541 17.8398 50.4241 17.0498 48.4041 17.0498C44.7641 17.0498 41.7041 20.0098 41.7041 23.6598C41.7041 27.3098 44.7641 30.2698 48.4041 30.2698C50.3741 30.2698 51.8541 29.6298 53.0141 28.4198C54.2041 27.2298 54.5741 25.5498 54.5741 24.1998C54.5741 23.7798 54.5441 23.3898 54.4741 23.0698H48.4041V23.0598ZM93.7141 24.4598C93.3641 23.5098 92.2841 21.7498 90.0741 21.7498C87.8641 21.7498 86.0641 23.4698 86.0641 25.9998C86.0641 28.3798 87.8641 30.2498 90.2841 30.2498C92.2341 30.2498 93.3641 29.0598 93.8241 28.3698L92.3741 27.3998C91.8941 28.1098 91.2341 28.5798 90.2841 28.5798C89.3341 28.5798 88.6541 28.1498 88.2241 27.2898L93.9141 24.9398L93.7241 24.4598H93.7141ZM87.9141 25.8798C87.8641 24.2398 89.1841 23.3998 90.1341 23.3998C90.8741 23.3998 91.5041 23.7698 91.7141 24.2998L87.9141 25.8798ZM83.2941 29.9998H85.1641V17.4998H83.2941V29.9998ZM80.2341 22.6998H80.1741C79.7541 22.1998 78.9541 21.7498 77.9341 21.7498C75.8041 21.7498 73.8541 23.6198 73.8541 26.0198C73.8541 28.4198 75.8041 30.2598 77.9341 30.2598C78.9441 30.2598 79.7541 29.8098 80.1741 29.2898H80.2341V29.8998C80.2341 31.5298 79.3641 32.3998 77.9641 32.3998C76.8241 32.3998 76.1141 31.5798 75.8241 30.8898L74.1941 31.5698C74.6641 32.6998 75.9041 34.0798 77.9641 34.0798C80.1541 34.0798 82.0041 32.7898 82.0041 29.6498V22.0098H80.2341V22.6998ZM78.0841 28.5798C76.7941 28.5798 75.7141 27.4998 75.7141 26.0198C75.7141 24.5398 76.7941 23.4298 78.0841 23.4298C79.3741 23.4298 80.3541 24.5298 80.3541 26.0198C80.3541 27.5098 79.3541 28.5798 78.0841 28.5798ZM102.474 17.4998H98.0041V29.9998H99.8741V25.2598H102.484C104.554 25.2598 106.584 23.7598 106.584 21.3798C106.584 18.9998 104.554 17.4998 102.484 17.4998H102.474ZM102.514 23.5198H99.8641V19.2298H102.514C103.914 19.2298 104.704 20.3898 104.704 21.3698C104.704 22.3498 103.914 23.5098 102.514 23.5098V23.5198ZM114.054 21.7298C112.704 21.7298 111.304 22.3298 110.724 23.6398L112.384 24.3298C112.734 23.6398 113.394 23.4098 114.084 23.4098C115.044 23.4098 116.034 23.9898 116.044 25.0198V25.1498C115.704 24.9598 114.984 24.6698 114.094 24.6698C112.304 24.6698 110.494 25.6498 110.494 27.4798C110.494 29.1498 111.954 30.2298 113.594 30.2298C114.844 30.2298 115.544 29.6698 115.974 29.0098H116.034V29.9698H117.834V25.1798C117.834 22.9598 116.174 21.7198 114.034 21.7198L114.054 21.7298ZM113.824 28.5798C113.214 28.5798 112.364 28.2698 112.364 27.5198C112.364 26.5598 113.424 26.1898 114.344 26.1898C115.164 26.1898 115.554 26.3698 116.044 26.6098C115.904 27.7698 114.904 28.5898 113.824 28.5898V28.5798ZM124.404 21.9998L122.264 27.4198H122.204L119.984 21.9998H117.974L121.304 29.5798L119.404 33.7898H121.354L126.484 21.9998H124.414H124.404ZM107.604 29.9998H109.474V17.4998H107.604V29.9998Z" fill="white"/>
<g id="Group_2">
<path id="Vector_11" d="M21.3834 19.4192L10.7334 30.7192C11.0634 31.9492 12.1834 32.8492 13.5134 32.8492C14.0434 32.8492 14.5434 32.7092 14.9734 32.4492L15.0034 32.4292L26.9834 25.5192L21.3734 19.4092L21.3834 19.4192Z" fill="#EA4335"/>
<path id="Vector_12" d="M32.1536 17.4993H32.1436L26.9736 14.4893L21.1436 19.6793L26.9936 25.5293L32.1436 22.5593C33.0436 22.0693 33.6536 21.1193 33.6536 20.0293C33.6536 18.9393 33.0536 17.9893 32.1536 17.5093V17.4993Z" fill="#FBBC04"/>
<path id="Vector_13" d="M10.7338 9.2793C10.6738 9.5193 10.6338 9.7593 10.6338 10.0193V29.9893C10.6338 30.2493 10.6638 30.4893 10.7338 30.7293L21.7438 19.7193L10.7338 9.2793Z" fill="#4285F4"/>
<path id="Vector_14" d="M21.4634 19.9996L26.9734 14.4896L15.0034 7.54965C14.5734 7.28965 14.0634 7.13965 13.5134 7.13965C12.1834 7.13965 11.0634 8.04965 10.7334 9.26965L21.4634 19.9896V19.9996Z" fill="#34A853"/>
</g>
</g>
<defs>
<clipPath id="clip0_2371_237559">
<rect width="135" height="40" fill="white" transform="translate(0.664062)"/>
</clipPath>
</defs>
</svg>
