<svg width="64" height="64" viewBox="0 0 64 64" fill="none" xmlns="http://www.w3.org/2000/svg">
<path fill-rule="evenodd" clip-rule="evenodd" d="M32 22.8C29.5339 22.8 27.55 24.7748 27.55 27.1923C27.55 29.0979 28.7814 30.7283 30.5139 31.3339C30.8349 31.4461 31.0499 31.749 31.0499 32.0891V39.1999H33.2999V31.9525C33.2999 31.6334 33.4896 31.3448 33.7826 31.2182C35.3581 30.5374 36.45 28.9871 36.45 27.1923C36.45 24.7748 34.466 22.8 32 22.8ZM25.95 27.1923C25.95 23.8745 28.667 21.2 32 21.2C35.3329 21.2 38.05 23.8745 38.05 27.1923C38.05 29.4655 36.773 31.4372 34.8999 32.4524V40C34.8999 40.4418 34.5417 40.7999 34.0999 40.7999H30.2499C29.8081 40.7999 29.4499 40.4418 29.4499 40V32.6276C27.3871 31.6765 25.95 29.6043 25.95 27.1923Z" fill="#395664"/>
<path fill-rule="evenodd" clip-rule="evenodd" d="M44.5286 7.69604H8.93613C7.97726 7.69604 7.19995 8.47336 7.19995 9.43222V32.641C7.19995 32.6688 7.20061 32.6964 7.20191 32.724C7.20061 32.8308 7.19995 32.9378 7.19995 33.0449C7.19995 40.1331 11.6671 46.4476 16.8804 50.9405C19.4997 53.1979 22.3422 55.0273 24.9815 56.2957C27.6014 57.5547 30.0942 58.2961 31.9999 58.2961C33.9057 58.2961 36.3985 57.5547 39.0184 56.2957C41.6577 55.0273 44.5002 53.1979 47.1195 50.9405C52.3328 46.4476 56.7999 40.1331 56.7999 33.0449C56.7999 32.9378 56.7993 32.8308 56.798 32.724C56.7987 32.7095 56.7992 32.6949 56.7995 32.6803C56.7998 32.6672 56.7999 32.6541 56.7999 32.641V20.7095C56.2885 20.933 55.7536 21.1127 55.2 21.244V32.641C55.2 32.6446 55.1998 32.6481 55.1996 32.6514L55.1973 32.6842L55.1978 32.7172C55.1992 32.8262 55.1999 32.9355 55.1999 33.0449C55.1999 39.4607 51.1302 45.3718 46.075 49.7285C43.5601 51.8959 40.8354 53.6473 38.3254 54.8535C35.796 56.0691 33.5572 56.6961 31.9999 56.6961C30.4427 56.6961 28.2039 56.0691 25.6745 54.8535C23.1645 53.6473 20.4398 51.8959 17.9249 49.7285C12.8697 45.3718 8.79995 39.4607 8.79995 33.0449C8.79995 32.9355 8.80068 32.8262 8.80213 32.7171L8.80257 32.6842L8.8003 32.6513C8.80008 32.648 8.79995 32.6446 8.79995 32.641V9.43222C8.79995 9.35701 8.86092 9.29604 8.93613 9.29604H43.8903C44.0552 8.7397 44.2697 8.20466 44.5286 7.69604ZM43.6174 13.498H13.9386C13.4215 13.498 13.0024 13.9172 13.0024 14.4342V32.7085C13.0007 32.8142 13 32.9202 13 33.0263C13 43.7803 26.5564 52.498 32.0059 52.498C37.4554 52.498 51 43.7803 51 33.0263C51 32.9202 50.9992 32.8142 50.9975 32.7085V21.2886C50.4448 21.17 49.91 21.0033 49.3975 20.7932V32.7209L49.3977 32.7333C49.3992 32.8308 49.4 32.9284 49.4 33.0263C49.4 37.7337 46.4082 42.1988 42.4989 45.5856C40.5692 47.2573 38.4828 48.6048 36.5758 49.5276C34.6291 50.4697 33.0166 50.898 32.0059 50.898C30.9951 50.898 29.3818 50.4696 27.4338 49.5275C25.5257 48.6046 23.4377 47.257 21.5066 45.5852C17.5941 42.1981 14.6 37.7331 14.6 33.0263C14.6 32.9277 14.6007 32.83 14.6022 32.7333L14.6024 32.7209V15.098H44.0166C43.8391 14.5833 43.7046 14.0485 43.6174 13.498Z" fill="#395664"/>
<path fill-rule="evenodd" clip-rule="evenodd" d="M53 19.9C57.363 19.9 60.9 16.363 60.9 12C60.9 7.63695 57.363 4.1 53 4.1C48.637 4.1 45.1 7.63695 45.1 12C45.1 16.363 48.637 19.9 53 19.9ZM53 21.5C58.2467 21.5 62.5 17.2467 62.5 12C62.5 6.75329 58.2467 2.5 53 2.5C47.7533 2.5 43.5 6.75329 43.5 12C43.5 17.2467 47.7533 21.5 53 21.5Z" fill="#395664"/>
<path fill-rule="evenodd" clip-rule="evenodd" d="M57.0656 9.18426C57.3781 9.49668 57.3781 10.0032 57.0656 10.3156L51.8333 15.548L48.9343 12.649C48.6218 12.3366 48.6218 11.83 48.9343 11.5176C49.2467 11.2052 49.7532 11.2052 50.0656 11.5176L51.8333 13.2853L55.9343 9.18427C56.2467 8.87185 56.7532 8.87185 57.0656 9.18426Z" fill="#395664"/>
</svg>
