<svg width="109" height="40" viewBox="0 0 109 40" fill="none" xmlns="http://www.w3.org/2000/svg">
<g id="Group">
<g id="Group_2">
<path id="Vector" d="M99.3223 0H9.53468C9.16798 0 8.80568 0 8.43995 0.002C8.1338 0.004 7.83009 0.00981 7.521 0.0147C6.84951 0.0226018 6.17961 0.0816763 5.5171 0.19141C4.85552 0.303533 4.21467 0.514916 3.61622 0.81841C3.0185 1.12447 2.47235 1.52217 1.99757 1.99707C1.5203 2.47064 1.12246 3.01802 0.81935 3.61816C0.5154 4.21711 0.304641 4.85894 0.19435 5.52148C0.0830109 6.18319 0.0230984 6.85252 0.01515 7.52348C0.00587 7.83008 0.00489 8.1377 0 8.44434V31.5586C0.00489 31.8691 0.00587 32.1699 0.01515 32.4805C0.0231008 33.1514 0.0830134 33.8207 0.19435 34.4824C0.304336 35.1453 0.515108 35.7875 0.81935 36.3867C1.12233 36.9849 1.52022 37.5301 1.99757 38.001C2.47054 38.478 3.01705 38.876 3.61622 39.1797C4.21467 39.484 4.85545 39.6966 5.5171 39.8105C6.17972 39.9194 6.84956 39.9785 7.521 39.9873C7.83009 39.9941 8.1338 39.998 8.43995 39.998C8.80567 40 9.168 40 9.53468 40H99.3223C99.6817 40 100.047 40 100.406 39.998C100.711 39.998 101.023 39.9941 101.328 39.9873C101.998 39.9789 102.667 39.9198 103.328 39.8105C103.992 39.6958 104.635 39.4833 105.236 39.1797C105.835 38.8758 106.381 38.4778 106.854 38.001C107.33 37.5282 107.728 36.9835 108.035 36.3867C108.337 35.7871 108.546 35.1449 108.654 34.4824C108.766 33.8206 108.828 33.1515 108.84 32.4805C108.844 32.1699 108.844 31.8691 108.844 31.5586C108.852 31.1953 108.852 30.834 108.852 30.4648V9.53613C108.852 9.16992 108.852 8.80664 108.844 8.44434C108.844 8.1377 108.844 7.83008 108.84 7.52344C108.828 6.85242 108.766 6.18324 108.654 5.52144C108.546 4.85928 108.337 4.2175 108.035 3.61812C107.418 2.4152 106.439 1.43603 105.236 0.81832C104.635 0.515567 103.992 0.30424 103.328 0.19132C102.667 0.0811028 101.998 0.0220078 101.328 0.01456C101.023 0.00968 100.711 0.00382 100.406 0.00187C100.047 0 99.6817 0 99.3223 0Z" fill="#A6A6A6"/>
<path id="Vector_2" d="M8.44487 39.125C8.14019 39.125 7.84287 39.1211 7.54058 39.1143C6.91436 39.1061 6.2896 39.0516 5.67144 38.9512C5.09503 38.8519 4.53664 38.6673 4.0147 38.4033C3.49754 38.1415 3.02585 37.7983 2.6177 37.3867C2.20364 36.98 1.85891 36.5082 1.59719 35.9902C1.33258 35.4688 1.14945 34.9099 1.05419 34.333C0.951311 33.7131 0.895651 33.0863 0.887687 32.458C0.881347 32.2471 0.873047 31.5449 0.873047 31.5449V8.44434C0.873047 8.44434 0.881887 7.75293 0.887737 7.5498C0.895363 6.92248 0.950699 6.29665 1.05327 5.67773C1.14871 5.09925 1.33197 4.53875 1.59673 4.01563C1.85749 3.49794 2.2003 3.02586 2.61187 2.61768C3.02297 2.20562 3.49617 1.8606 4.01421 1.59521C4.53495 1.33209 5.09228 1.14873 5.66753 1.05127C6.28772 0.949836 6.91465 0.894996 7.54304 0.88721L8.44536 0.875H100.401L101.314 0.8877C101.937 0.895099 102.558 0.94945 103.173 1.05029C103.754 1.14898 104.317 1.33362 104.844 1.59814C105.882 2.13299 106.726 2.97916 107.259 4.01807C107.519 4.53758 107.7 5.09351 107.794 5.667C107.898 6.291 107.956 6.92175 107.968 7.55421C107.971 7.83741 107.971 8.14161 107.971 8.44435C107.979 8.81935 107.979 9.17628 107.979 9.53614V30.4648C107.979 30.8281 107.979 31.1826 107.971 31.54C107.971 31.8652 107.971 32.1631 107.967 32.4697C107.955 33.0909 107.898 33.7104 107.796 34.3232C107.703 34.9043 107.52 35.4675 107.256 35.9932C106.992 36.5056 106.65 36.9733 106.24 37.3789C105.832 37.7927 105.359 38.1379 104.841 38.4014C104.316 38.6674 103.753 38.8527 103.173 38.9512C102.555 39.0522 101.93 39.1067 101.304 39.1143C101.011 39.1211 100.704 39.125 100.406 39.125L99.3223 39.127L8.44487 39.125Z" fill="black"/>
</g>
<g id="Group_3">
<path id="Vector_3" d="M41.1674 16.5541H37.1158L36.1428 19.4271H34.4268L38.2643 8.79785H40.0473L43.8849 19.4271H42.1395L41.1674 16.5541ZM37.5354 15.2284H40.747L39.1638 10.5658H39.1195L37.5354 15.2284Z" fill="white"/>
<path id="Vector_4" d="M52.1729 15.5534C52.1729 17.9616 50.884 19.5088 48.9388 19.5088C48.4461 19.5346 47.9561 19.4211 47.5248 19.1813C47.0936 18.9415 46.7386 18.5851 46.5005 18.153H46.4638V21.9914H44.873V11.6781H46.4128V12.9671H46.442C46.6911 12.5371 47.0521 12.1825 47.4866 11.9413C47.9211 11.7 48.4129 11.5811 48.9096 11.5971C50.8764 11.5971 52.1729 13.1518 52.1729 15.5534ZM50.5379 15.5534C50.5379 13.9844 49.7271 12.9529 48.49 12.9529C47.2746 12.9529 46.4571 14.0061 46.4571 15.5534C46.4571 17.1148 47.2746 18.1605 48.49 18.1605C49.7271 18.1605 50.5379 17.1365 50.5379 15.5534Z" fill="white"/>
<path id="Vector_5" d="M60.7026 15.5534C60.7026 17.9616 59.4132 19.5088 57.4681 19.5088C56.9754 19.5346 56.4854 19.4211 56.0541 19.1813C55.6229 18.9415 55.2679 18.5851 55.0298 18.153H54.993V21.9914H53.4023V11.6781H54.9421V12.9671H54.9713C55.2204 12.5371 55.5814 12.1825 56.0159 11.9413C56.4504 11.7 56.9422 11.5811 57.4389 11.5971C59.4057 11.5971 60.7026 13.1518 60.7026 15.5534ZM59.0672 15.5534C59.0672 13.9844 58.2564 12.9529 57.0192 12.9529C55.8039 12.9529 54.9864 14.0061 54.9864 15.5534C54.9864 17.1148 55.8039 18.1605 57.0192 18.1605C58.2564 18.1605 59.0672 17.1365 59.0672 15.5534Z" fill="white"/>
<path id="Vector_6" d="M66.3393 16.466C66.4571 17.52 67.4811 18.2121 68.8804 18.2121C70.2211 18.2121 71.1858 17.52 71.1858 16.5696C71.1858 15.7446 70.604 15.2506 69.2264 14.912L67.8489 14.5802C65.8971 14.1087 64.991 13.1959 64.991 11.7147C64.991 9.88073 66.5892 8.62109 68.8578 8.62109C71.1047 8.62109 72.6444 9.88078 72.6962 11.7147H71.0905C70.9943 10.654 70.1175 10.0137 68.8361 10.0137C67.5547 10.0137 66.6778 10.6616 66.6778 11.6044C66.6778 12.3559 67.2378 12.7981 68.6079 13.1366L69.779 13.4242C71.9598 13.9399 72.8651 14.8159 72.8651 16.3707C72.8651 18.3593 71.2819 19.6048 68.7625 19.6048C66.4053 19.6048 64.8138 18.3885 64.7109 16.466L66.3393 16.466Z" fill="white"/>
<path id="Vector_7" d="M76.2992 9.84382V11.6778H77.7729V12.9375H76.2992V17.2097C76.2992 17.8734 76.5943 18.1828 77.2421 18.1828C77.4171 18.1797 77.5917 18.1674 77.7654 18.146V19.3981C77.4741 19.4526 77.1781 19.4772 76.8819 19.4717C75.3129 19.4717 74.701 18.8824 74.701 17.3795V12.9375H73.5742V11.6778H74.701V9.84375L76.2992 9.84382Z" fill="white"/>
<path id="Vector_8" d="M78.626 15.5535C78.626 13.1152 80.062 11.583 82.3014 11.583C84.5483 11.583 85.9777 13.1152 85.9777 15.5535C85.9777 17.9985 84.5558 19.524 82.3014 19.524C80.0478 19.524 78.626 17.9985 78.626 15.5535ZM84.3569 15.5535C84.3569 13.8809 83.5904 12.8937 82.3014 12.8937C81.0125 12.8937 80.2459 13.8884 80.2459 15.5535C80.2459 17.2328 81.0125 18.2125 82.3014 18.2125C83.5904 18.2125 84.3569 17.2328 84.3569 15.5535Z" fill="white"/>
<path id="Vector_9" d="M87.2891 11.6782H88.8062V12.9972H88.843C88.9456 12.5852 89.1869 12.2212 89.5264 11.9662C89.8658 11.7112 90.2827 11.5809 90.707 11.597C90.8903 11.5964 91.0731 11.6163 91.252 11.6564V13.1443C91.0205 13.0736 90.7791 13.0411 90.5373 13.0482C90.3062 13.0388 90.0758 13.0795 89.8619 13.1676C89.6481 13.2557 89.4558 13.389 89.2983 13.5584C89.1409 13.7278 89.0219 13.9292 88.9496 14.1489C88.8774 14.3686 88.8535 14.6014 88.8797 14.8312V19.4277H87.2891V11.6782Z" fill="white"/>
<path id="Vector_10" d="M98.5863 17.1517C98.4115 17.8841 97.9769 18.5281 97.3632 18.9644C96.7496 19.4006 95.9985 19.5995 95.2494 19.524C92.995 19.524 91.5957 18.0135 91.5957 15.5903C91.5957 13.1595 93.0025 11.583 95.1825 11.583C97.3266 11.583 98.6749 13.0558 98.6749 15.4055V15.9505H93.2015V16.0467C93.1762 16.3319 93.2119 16.6192 93.3062 16.8895C93.4005 17.1599 93.5513 17.4071 93.7485 17.6147C93.9456 17.8223 94.1847 17.9856 94.4498 18.0937C94.715 18.2018 95.0001 18.2523 95.2862 18.2417C95.6621 18.277 96.0393 18.1899 96.3618 17.9935C96.6842 17.7971 96.9347 17.5019 97.0758 17.1517L98.5863 17.1517ZM93.209 14.8388H97.0834C97.0976 14.5824 97.0588 14.3257 96.9692 14.085C96.8796 13.8443 96.7412 13.6248 96.5627 13.4401C96.3842 13.2554 96.1695 13.1096 95.932 13.0118C95.6945 12.914 95.4393 12.8664 95.1825 12.8719C94.9235 12.8704 94.6667 12.9202 94.427 13.0184C94.1873 13.1166 93.9694 13.2613 93.786 13.4442C93.6025 13.627 93.457 13.8444 93.358 14.0838C93.259 14.3232 93.2083 14.5798 93.209 14.8388Z" fill="white"/>
</g>
<g id="Group_4">
<path id="Vector_11" d="M34.4287 24.04H41.8901V24.8203H38.3433V25.9238C38.8516 26.1592 39.3631 26.4186 39.8779 26.7021C40.3926 26.9853 40.9133 27.2894 41.4399 27.6143L40.9805 28.3311C40.4385 27.9854 39.9515 27.6807 39.5195 27.417C39.0874 27.1533 38.6953 26.9342 38.3433 26.7598V31.3682H37.5527V24.8203H34.4287L34.4287 24.04Z" fill="white"/>
<path id="Vector_12" d="M44.0015 24.1221H45.4395V23.6816H46.2022V24.1221H47.5943V24.7471H46.2022V25.1973H48.1782C48.1597 24.9648 48.1504 24.7214 48.1504 24.4668V23.6816H48.895C48.895 23.9512 48.898 24.2139 48.9038 24.4716C48.9102 24.7285 48.9194 24.9703 48.9316 25.1972H50.9439V25.8545H48.959C48.9775 26.3203 49.0059 26.7314 49.044 27.0879C49.0826 27.4453 49.126 27.7549 49.1753 28.0185C49.1875 28.1015 49.2002 28.1758 49.2144 28.2412C49.2281 28.3076 49.2442 28.374 49.2622 28.4414C49.4043 28.1123 49.5278 27.7755 49.6324 27.4326C49.7471 27.0532 49.8399 26.6674 49.9102 26.2773L50.5855 26.58C50.3872 27.5985 50.0389 28.5819 49.5518 29.4981C49.5987 29.6293 49.6523 29.758 49.7124 29.8838C49.8872 30.2607 50.0344 30.4492 50.1538 30.4492C50.2486 30.4492 50.3466 30.0218 50.4478 29.167L51.0957 29.5254C50.9029 30.7354 50.6241 31.3405 50.2593 31.3408C49.9898 31.3408 49.682 31.0866 49.336 30.5781C49.2423 30.4546 49.1665 30.3185 49.1109 30.1738C48.8232 30.55 48.4736 30.8747 48.0772 31.1338L47.7188 30.6289H46.1748V31.3311H45.4395V30.6289H43.5606V29.9854H45.4395V29.627H43.9736V27.2012H45.4395V26.8701H43.6705V26.2773H45.4395V25.96H46.1748V26.2774H47.9346V26.8701H46.1748V27.2012H47.6724V29.627H46.1748V29.9854H47.9253V30.3252C48.2588 30.0511 48.5445 29.7234 48.7705 29.3555C48.7158 29.1875 48.6675 29.0118 48.626 28.8301C48.5845 28.6475 48.5423 28.4522 48.4995 28.2442C48.3386 27.4566 48.2403 26.6576 48.2056 25.8545H43.4824V25.1973H45.4395V24.7471H44.0015V24.1221ZM44.6309 28.1523H45.4947V27.7383H44.6309V28.1523ZM45.4947 29.0752V28.6387H44.6309V29.0752H45.4947ZM46.1382 27.7383V28.1523H47.002V27.7383H46.1382ZM47.002 29.0752V28.6387H46.1382V29.0752H47.002ZM49.212 24.0576L49.7676 23.6992C50.0951 24.0302 50.3921 24.39 50.6548 24.7744L50.0801 25.1885C49.9732 25.0166 49.8491 24.8379 49.7081 24.6504C49.5669 24.4639 49.4016 24.2663 49.212 24.0576Z" fill="white"/>
</g>
<g id="&#60;Group&#62;">
<g id="&#60;Group&#62;_2">
<path id="&#60;Path&#62;" d="M24.769 20.3013C24.7797 19.4666 25.0014 18.6483 25.4135 17.9223C25.8255 17.1964 26.4145 16.5864 27.1256 16.1492C26.6738 15.5041 26.0779 14.9731 25.385 14.5986C24.6922 14.224 23.9216 14.0162 23.1344 13.9916C21.4552 13.8153 19.8272 14.9964 18.9715 14.9964C18.0992 14.9964 16.7817 14.0091 15.363 14.0383C14.4453 14.0679 13.551 14.3348 12.7671 14.8128C11.9832 15.2909 11.3365 15.9638 10.8901 16.7661C8.95607 20.1145 10.3987 25.0356 12.2513 27.7422C13.1782 29.0676 14.2615 30.548 15.6789 30.4955C17.066 30.438 17.584 29.611 19.2583 29.611C20.9171 29.611 21.4031 30.4955 22.8493 30.4621C24.3377 30.438 25.2754 29.1309 26.1698 27.793C26.8358 26.8486 27.3483 25.8049 27.6882 24.7005C26.8235 24.3347 26.0856 23.7226 25.5665 22.9403C25.0474 22.158 24.77 21.2402 24.769 20.3013Z" fill="white"/>
<path id="&#60;Path&#62;_2" d="M22.0376 12.2113C22.8491 11.2371 23.2489 9.98494 23.1521 8.7207C21.9123 8.85092 20.767 9.44348 19.9445 10.3803C19.5424 10.838 19.2344 11.3704 19.0381 11.9472C18.8419 12.524 18.7612 13.1337 18.8008 13.7417C19.4209 13.7481 20.0344 13.6137 20.5951 13.3486C21.1558 13.0835 21.649 12.6946 22.0376 12.2113Z" fill="white"/>
</g>
</g>
</g>
</svg>
