<svg width="109" height="40" viewBox="0 0 109 40" fill="none" xmlns="http://www.w3.org/2000/svg">
<g id="Group">
<g id="Group_2">
<path id="Vector" d="M99.4577 0H9.54768C9.18048 0 8.81769 0 8.45146 0.002C8.14489 0.004 7.84077 0.00981 7.53126 0.0147C6.85885 0.0226018 6.18803 0.0816763 5.52462 0.19141C4.86214 0.303533 4.22042 0.514916 3.62115 0.81841C3.02262 1.12447 2.47572 1.52217 2.00029 1.99707C1.52238 2.47064 1.12399 3.01802 0.820467 3.61816C0.516103 4.21711 0.305056 4.85894 0.194615 5.52148C0.0831241 6.18319 0.0231299 6.85252 0.0151707 7.52348C0.00587801 7.83008 0.00489667 8.1377 0 8.44434V31.5586C0.00489667 31.8691 0.00587801 32.1699 0.0151707 32.4805C0.0231323 33.1514 0.0831266 33.8207 0.194615 34.4824C0.304751 35.1453 0.515811 35.7875 0.820467 36.3867C1.12386 36.9849 1.52229 37.5301 2.00029 38.001C2.47391 38.478 3.02117 38.876 3.62115 39.1797C4.22042 39.484 4.86207 39.6966 5.52462 39.8105C6.18815 39.9194 6.8589 39.9785 7.53126 39.9873C7.84077 39.9941 8.14489 39.998 8.45146 39.998C8.81768 40 9.1805 40 9.54768 40H99.4577C99.8176 40 100.183 40 100.543 39.998C100.848 39.998 101.161 39.9941 101.466 39.9873C102.137 39.9789 102.807 39.9198 103.469 39.8105C104.134 39.6958 104.778 39.4833 105.38 39.1797C105.979 38.8758 106.526 38.4778 106.999 38.001C107.476 37.5282 107.875 36.9835 108.182 36.3867C108.485 35.7871 108.694 35.1449 108.802 34.4824C108.914 33.8206 108.976 33.1515 108.988 32.4805C108.992 32.1699 108.992 31.8691 108.992 31.5586C109 31.1953 109 30.834 109 30.4648V9.53613C109 9.16992 109 8.80664 108.992 8.44434C108.992 8.1377 108.992 7.83008 108.988 7.52344C108.976 6.85242 108.914 6.18324 108.802 5.52144C108.694 4.85928 108.485 4.2175 108.182 3.61812C107.564 2.4152 106.584 1.43603 105.38 0.81832C104.778 0.515567 104.134 0.30424 103.469 0.19132C102.807 0.0811028 102.137 0.0220078 101.466 0.01456C101.161 0.00968 100.848 0.00382 100.543 0.00187C100.183 0 99.8176 0 99.4577 0Z" fill="#A6A6A6"/>
<path id="Vector_2" d="M8.45715 39.125C8.15205 39.125 7.85432 39.1211 7.55162 39.1143C6.92455 39.1061 6.29894 39.0516 5.67993 38.9512C5.10274 38.8519 4.54359 38.6673 4.02093 38.4033C3.50307 38.1415 3.03074 37.7983 2.62203 37.3867C2.2074 36.98 1.86221 36.5082 1.60013 35.9902C1.33516 35.4688 1.15178 34.9099 1.05639 34.333C0.953371 33.7131 0.897635 33.0863 0.88966 32.458C0.883311 32.2471 0.875 31.5449 0.875 31.5449V8.44434C0.875 8.44434 0.883852 7.75293 0.88971 7.5498C0.897346 6.92248 0.952758 6.29665 1.05547 5.67773C1.15103 5.09925 1.33455 4.53875 1.59967 4.01563C1.86079 3.49794 2.20406 3.02586 2.61619 2.61768C3.02785 2.20562 3.5017 1.8606 4.02044 1.59521C4.5419 1.33209 5.09999 1.14873 5.67602 1.05127C6.29706 0.949836 6.92484 0.894996 7.55409 0.88721L8.45764 0.875H100.539L101.453 0.8877C102.077 0.895099 102.699 0.94945 103.314 1.05029C103.896 1.14898 104.46 1.33362 104.987 1.59814C106.027 2.13299 106.872 2.97916 107.406 4.01807C107.667 4.53758 107.847 5.09351 107.942 5.667C108.046 6.291 108.104 6.92175 108.116 7.55421C108.119 7.83741 108.119 8.14161 108.119 8.44435C108.127 8.81935 108.127 9.17628 108.127 9.53614V30.4648C108.127 30.8281 108.127 31.1826 108.119 31.54C108.119 31.8652 108.119 32.1631 108.115 32.4697C108.103 33.0909 108.046 33.7104 107.944 34.3232C107.85 34.9043 107.668 35.4675 107.403 35.9932C107.139 36.5056 106.796 36.9733 106.386 37.3789C105.977 37.7927 105.504 38.1379 104.985 38.4014C104.459 38.6674 103.896 38.8527 103.314 38.9512C102.695 39.0522 102.07 39.1067 101.443 39.1143C101.149 39.1211 100.842 39.125 100.544 39.125L99.4585 39.127L8.45715 39.125Z" fill="black"/>
</g>
<g id="Group_3">
<path id="Vector_3" d="M41.2235 16.5541H37.1664L36.192 19.4271H34.4736L38.3165 8.79785H40.1019L43.9447 19.4271H42.1969L41.2235 16.5541ZM37.5865 15.2284H40.8025L39.2171 10.5658H39.1728L37.5865 15.2284Z" fill="white"/>
<path id="Vector_4" d="M52.2434 15.5534C52.2434 17.9616 50.9527 19.5088 49.0049 19.5088C48.5115 19.5346 48.0208 19.4211 47.589 19.1813C47.1572 18.9415 46.8017 18.5851 46.5633 18.153H46.5265V21.9914H44.9336V11.6781H46.4754V12.9671H46.5047C46.7541 12.5371 47.1156 12.1825 47.5507 11.9413C47.9858 11.7 48.4782 11.5811 48.9756 11.5971C50.9452 11.5971 52.2434 13.1518 52.2434 15.5534ZM50.6062 15.5534C50.6062 13.9844 49.7943 12.9529 48.5554 12.9529C47.3384 12.9529 46.5198 14.0061 46.5198 15.5534C46.5198 17.1148 47.3384 18.1605 48.5554 18.1605C49.7943 18.1605 50.6062 17.1365 50.6062 15.5534Z" fill="white"/>
<path id="Vector_5" d="M60.7858 15.5534C60.7858 17.9616 59.4947 19.5088 57.5469 19.5088C57.0535 19.5346 56.5628 19.4211 56.131 19.1813C55.6992 18.9415 55.3437 18.5851 55.1053 18.153H55.0685V21.9914H53.4756V11.6781H55.0174V12.9671H55.0467C55.2961 12.5371 55.6576 12.1825 56.0927 11.9413C56.5278 11.7 57.0202 11.5811 57.5176 11.5971C59.4871 11.5971 60.7858 13.1518 60.7858 15.5534ZM59.1482 15.5534C59.1482 13.9844 58.3362 12.9529 57.0974 12.9529C55.8804 12.9529 55.0618 14.0061 55.0618 15.5534C55.0618 17.1148 55.8804 18.1605 57.0974 18.1605C58.3362 18.1605 59.1482 17.1365 59.1482 15.5534Z" fill="white"/>
<path id="Vector_6" d="M66.4294 16.466C66.5474 17.52 67.5728 18.2121 68.974 18.2121C70.3166 18.2121 71.2825 17.52 71.2825 16.5696C71.2825 15.7446 70.6999 15.2506 69.3205 14.912L67.9411 14.5802C65.9866 14.1087 65.0792 13.1959 65.0792 11.7147C65.0792 9.88073 66.6797 8.62109 68.9514 8.62109C71.2013 8.62109 72.7431 9.88078 72.795 11.7147H71.1871C71.0908 10.654 70.2127 10.0137 68.9296 10.0137C67.6465 10.0137 66.7684 10.6616 66.7684 11.6044C66.7684 12.3559 67.3291 12.7981 68.7011 13.1366L69.8738 13.4242C72.0576 13.9399 72.9641 14.8159 72.9641 16.3707C72.9641 18.3593 71.3788 19.6048 68.8559 19.6048C66.4955 19.6048 64.9018 18.3885 64.7988 16.466L66.4294 16.466Z" fill="white"/>
<path id="Vector_7" d="M76.4035 9.84382V11.6778H77.8792V12.9375H76.4035V17.2097C76.4035 17.8734 76.699 18.1828 77.3477 18.1828C77.5229 18.1797 77.6978 18.1674 77.8717 18.146V19.3981C77.58 19.4526 77.2836 19.4772 76.9869 19.4717C75.4158 19.4717 74.8031 18.8824 74.8031 17.3795V12.9375H73.6748V11.6778H74.8031V9.84375L76.4035 9.84382Z" fill="white"/>
<path id="Vector_8" d="M78.7334 15.5535C78.7334 13.1152 80.1714 11.583 82.4138 11.583C84.6638 11.583 86.0951 13.1152 86.0951 15.5535C86.0951 17.9985 84.6713 19.524 82.4138 19.524C80.1572 19.524 78.7334 17.9985 78.7334 15.5535ZM84.4721 15.5535C84.4721 13.8809 83.7045 12.8937 82.4138 12.8937C81.1231 12.8937 80.3556 13.8884 80.3556 15.5535C80.3556 17.2328 81.1231 18.2125 82.4138 18.2125C83.7045 18.2125 84.4721 17.2328 84.4721 15.5535Z" fill="white"/>
<path id="Vector_9" d="M87.4082 11.6782H88.9274V12.9972H88.9642C89.067 12.5852 89.3087 12.2212 89.6486 11.9662C89.9885 11.7112 90.4059 11.5809 90.8308 11.597C91.0143 11.5964 91.1974 11.6163 91.3765 11.6564V13.1443C91.1448 13.0736 90.903 13.0411 90.6608 13.0482C90.4294 13.0388 90.1987 13.0795 89.9846 13.1676C89.7704 13.2557 89.5779 13.389 89.4202 13.5584C89.2625 13.7278 89.1434 13.9292 89.071 14.1489C88.9987 14.3686 88.9748 14.6014 89.001 14.8312V19.4277H87.4082V11.6782Z" fill="white"/>
<path id="Vector_10" d="M98.7208 17.1517C98.5457 17.8841 98.1106 18.5281 97.4961 18.9644C96.8816 19.4006 96.1295 19.5995 95.3794 19.524C93.1219 19.524 91.7207 18.0135 91.7207 15.5903C91.7207 13.1595 93.1294 11.583 95.3124 11.583C97.4594 11.583 98.8095 13.0558 98.8095 15.4055V15.9505H93.3287V16.0467C93.3034 16.3319 93.3391 16.6192 93.4336 16.8895C93.528 17.1599 93.6789 17.4071 93.8764 17.6147C94.0738 17.8223 94.3132 17.9856 94.5787 18.0937C94.8442 18.2018 95.1297 18.2523 95.4162 18.2417C95.7926 18.277 96.1704 18.1899 96.4933 17.9935C96.8162 17.7971 97.0669 17.5019 97.2083 17.1517L98.7208 17.1517ZM93.3362 14.8388H97.2158C97.2301 14.5824 97.1912 14.3257 97.1015 14.085C97.0118 13.8443 96.8732 13.6248 96.6945 13.4401C96.5157 13.2554 96.3007 13.1096 96.0629 13.0118C95.825 12.914 95.5696 12.8664 95.3124 12.8719C95.053 12.8704 94.7959 12.9202 94.5559 13.0184C94.3159 13.1166 94.0977 13.2613 93.9139 13.4442C93.7302 13.627 93.5846 13.8444 93.4854 14.0838C93.3862 14.3232 93.3355 14.5798 93.3362 14.8388Z" fill="white"/>
</g>
<g id="Group_4">
<path id="Vector_11" d="M34.4756 24.04H41.9472V24.8203H38.3955V25.9238C38.9045 26.1592 39.4167 26.4186 39.9322 26.7021C40.4476 26.9853 40.969 27.2894 41.4964 27.6143L41.0363 28.3311C40.4935 27.9854 40.0059 27.6807 39.5733 27.417C39.1406 27.1533 38.748 26.9342 38.3955 26.7598V31.3682H37.6039V24.8203H34.4756L34.4756 24.04Z" fill="white"/>
<path id="Vector_12" d="M44.0162 24.2744H45.5803V23.6445H46.3534V24.2744H47.8026V24.9912H46.3534V25.6016H48.1801C48.1679 25.3018 48.1556 24.9886 48.1434 24.6621C48.1307 24.3359 48.1245 23.9938 48.1249 23.6357H48.893C48.893 24 48.8984 24.3438 48.9091 24.667C48.9199 24.9902 48.9314 25.3018 48.9438 25.6016H50.9774V26.3281H48.9805C49.0049 26.665 49.0364 26.9727 49.0749 27.251C49.113 27.5303 49.1477 27.7793 49.1785 28C49.2021 28.0731 49.2206 28.1479 49.2338 28.2236C49.246 28.2949 49.2582 28.3681 49.2705 28.4414C49.4002 28.1616 49.5138 27.8747 49.6108 27.582C49.712 27.2793 49.8041 26.9547 49.887 26.6084L50.5911 26.9297C50.3798 27.8326 50.0405 28.7007 49.5834 29.5078C49.6078 29.5683 49.6347 29.6308 49.6641 29.6933C49.6929 29.7558 49.7227 29.8164 49.7535 29.875C49.9467 30.2578 50.1001 30.4492 50.2136 30.4492C50.2904 30.4492 50.3794 30.0465 50.4806 29.2412L51.1568 29.5996C50.9637 30.7178 50.6785 31.2767 50.3012 31.2764C50.0156 31.2764 49.6919 31.0251 49.3301 30.5225C49.2561 30.4092 49.1931 30.2892 49.1419 30.1641C48.7509 30.6471 48.2753 31.0551 47.7381 31.3682L47.3015 30.7392C47.9066 30.4018 48.4186 29.92 48.7918 29.3369C48.7366 29.1562 48.6806 28.9704 48.6241 28.7793C48.5673 28.5879 48.5189 28.388 48.4789 28.1797C48.3457 27.5698 48.2582 26.9509 48.2168 26.3281H43.5791V25.6016H45.5804V24.9912H44.0162L44.0162 24.2744ZM47.8026 29.5625V30.252C47.6002 30.2764 47.3955 30.2992 47.1885 30.3204C46.9817 30.3418 46.7719 30.3653 46.5607 30.3897V31.3409H45.7876V30.4864C45.4962 30.5108 45.2 30.5336 44.8992 30.5547C44.599 30.5762 44.2934 30.6045 43.9839 30.6377L43.8827 29.8936C44.223 29.8809 44.5496 29.8634 44.8625 29.8409C45.1754 29.8174 45.4838 29.7966 45.7876 29.7784V29.1582H44.2509L44.0896 28.5283C44.3045 28.2522 44.4911 27.9551 44.6465 27.6416H43.8368V26.9385H44.9545C44.9941 26.8518 45.0265 26.762 45.0513 26.6699C45.0758 26.5801 45.1064 26.4844 45.1433 26.3828L45.8977 26.5166C45.8674 26.6016 45.8429 26.6777 45.8244 26.7442C45.8052 26.8115 45.779 26.8766 45.7461 26.9385H47.8393V27.6416H45.4655C45.3828 27.8076 45.2992 27.961 45.2146 28.1016C45.13 28.2423 45.051 28.3787 44.9775 28.5108H45.7877V27.9541H46.5607V28.5107H47.7567V29.1582H46.5607V29.6953C46.7719 29.6777 46.9817 29.6563 47.1886 29.6338C47.3953 29.6104 47.6 29.5866 47.8026 29.5625ZM49.1507 24.1035L49.7349 23.709C50.0873 24.1002 50.4148 24.5131 50.7153 24.9453L50.1217 25.3672C50.0019 25.1777 49.8616 24.9766 49.7007 24.7637C49.5394 24.5508 49.356 24.3307 49.1507 24.1035Z" fill="white"/>
</g>
<g id="&#60;Group&#62;">
<g id="&#60;Group&#62;_2">
<path id="&#60;Path&#62;" d="M24.8028 20.3013C24.8136 19.4666 25.0356 18.6483 25.4482 17.9223C25.8608 17.1964 26.4506 16.5864 27.1626 16.1492C26.7103 15.5041 26.1135 14.9731 25.4197 14.5986C24.726 14.224 23.9543 14.0162 23.166 13.9916C21.4845 13.8153 19.8543 14.9964 18.9974 14.9964C18.124 14.9964 16.8047 14.0091 15.384 14.0383C14.4651 14.0679 13.5695 14.3348 12.7846 14.8128C11.9996 15.2909 11.3521 15.9638 10.905 16.7661C8.96836 20.1145 10.4129 25.0356 12.2681 27.7422C13.1962 29.0676 14.281 30.548 15.7004 30.4955C17.0893 30.438 17.6081 29.611 19.2846 29.611C20.9457 29.611 21.4324 30.4955 22.8805 30.4621C24.3709 30.438 25.31 29.1309 26.2056 27.793C26.8725 26.8486 27.3856 25.8049 27.7261 24.7005C26.8602 24.3347 26.1213 23.7226 25.6014 22.9403C25.0816 22.158 24.8039 21.2402 24.8028 20.3013Z" fill="white"/>
<path id="&#60;Path&#62;_2" d="M22.0674 12.2113C22.88 11.2371 23.2804 9.98494 23.1834 8.7207C21.9419 8.85092 20.7951 9.44348 19.9715 10.3803C19.5688 10.838 19.2604 11.3704 19.0639 11.9472C18.8673 12.524 18.7866 13.1337 18.8262 13.7417C19.4472 13.7481 20.0615 13.6137 20.623 13.3486C21.1844 13.0835 21.6783 12.6946 22.0674 12.2113Z" fill="white"/>
</g>
</g>
</g>
</svg>
