<svg width="64" height="64" viewBox="0 0 64 64" fill="none" xmlns="http://www.w3.org/2000/svg">
<path fill-rule="evenodd" clip-rule="evenodd" d="M57.0462 30.1486C57.126 30.0561 57.2693 30.0561 57.3491 30.1486L61.3131 34.7455H59.5402V53.0059C59.5402 53.1164 59.4507 53.2059 59.3402 53.2059H55.0551C54.9446 53.2059 54.8551 53.1164 54.8551 53.0059V34.7455H53.0823L57.0462 30.1486ZM58.5608 29.1038C57.8428 28.2711 56.5525 28.2711 55.8345 29.1038L51.3004 34.3619C50.6298 35.1396 51.1823 36.3455 52.2092 36.3455H53.2551V53.0059C53.2551 54.0001 54.061 54.8059 55.0551 54.8059H59.3402C60.3343 54.8059 61.1402 54.0001 61.1402 53.0059V36.3455H62.1862C63.2131 36.3455 63.7656 35.1396 63.0949 34.3619L58.5608 29.1038ZM43.1221 42.5039C43.1221 41.5097 43.928 40.7039 44.9221 40.7039H49.2072C50.2013 40.7039 51.0072 41.5097 51.0072 42.5039V53.0058C51.0072 53.9999 50.2013 54.8058 49.2072 54.8058H44.9221C43.928 54.8058 43.1221 53.9999 43.1221 53.0058V42.5039ZM44.9221 42.3039C44.8116 42.3039 44.7221 42.3934 44.7221 42.5039V53.0058C44.7221 53.1162 44.8116 53.2058 44.9221 53.2058H49.2072C49.3176 53.2058 49.4072 53.1162 49.4072 53.0058V42.5039C49.4072 42.3934 49.3176 42.3039 49.2072 42.3039H44.9221ZM32.9893 47.7968C32.9893 46.8027 33.7951 45.9968 34.7893 45.9968H39.0744C40.0685 45.9968 40.8744 46.8027 40.8744 47.7968V53.0074C40.8744 54.0015 40.0685 54.8074 39.0744 54.8074H34.7893C33.7951 54.8074 32.9893 54.0015 32.9893 53.0074V47.7968ZM34.7893 47.5968C34.6788 47.5968 34.5893 47.6864 34.5893 47.7968V53.0074C34.5893 53.1179 34.6788 53.2074 34.7893 53.2074H39.0744C39.1848 53.2074 39.2744 53.1179 39.2744 53.0074V47.7968C39.2744 47.6864 39.1848 47.5968 39.0744 47.5968H34.7893Z" fill="#395664"/>
<path fill-rule="evenodd" clip-rule="evenodd" d="M5.95776 11.882C5.95776 10.9649 6.70124 10.2214 7.61836 10.2214H56.3768C57.2939 10.2214 58.0374 10.9649 58.0374 11.882V24.8202C58.0374 25.2621 57.6792 25.6202 57.2374 25.6202C56.7955 25.6202 56.4374 25.2621 56.4374 24.8202V11.882C56.4374 11.8486 56.4102 11.8214 56.3768 11.8214H7.61836C7.58489 11.8214 7.55776 11.8486 7.55776 11.882V52.1178C7.55776 52.1513 7.58489 52.1784 7.61836 52.1784H29.133C29.5748 52.1784 29.933 52.5366 29.933 52.9784C29.933 53.4203 29.5748 53.7784 29.133 53.7784H7.61836C6.70124 53.7784 5.95776 53.035 5.95776 52.1178V11.882Z" fill="#395664"/>
<path fill-rule="evenodd" clip-rule="evenodd" d="M11.2 17.6C11.2 16.2745 12.2745 15.2 13.6 15.2H50.4C51.7254 15.2 52.7999 16.2745 52.7999 17.6V28.4C52.7999 29.7254 51.7254 30.8 50.3999 30.8H13.5999C12.2745 30.8 11.2 29.7254 11.2 28.4V17.6ZM13.6 16.8C13.1581 16.8 12.8 17.1581 12.8 17.6V28.4C12.8 28.8418 13.1581 29.2 13.5999 29.2H50.3999C50.8418 29.2 51.1999 28.8418 51.1999 28.4V17.6C51.1999 17.1581 50.8418 16.8 50.4 16.8H13.6Z" fill="#395664"/>
<path fill-rule="evenodd" clip-rule="evenodd" d="M14.8884 21.3279V25.0719L15.8164 25.9999H18.2964L19.2244 25.0719V21.3279L18.2964 20.3999H15.8164L14.8884 21.3279ZM18.1364 24.7199L17.7844 25.0719H16.3284L15.9764 24.7199V21.6799L16.3284 21.3279H17.7844L18.1364 21.6799V24.7199ZM20.467 25.1359V23.6159L20.971 23.1119L20.547 22.6879V21.2639L21.411 20.3999H23.827L24.691 21.2639V22.6879L24.267 23.1119L24.771 23.6159V25.1359L23.907 25.9999H21.331L20.467 25.1359ZM23.323 22.7039L23.603 22.4239V21.6079L23.323 21.3279H21.915L21.635 21.6079V22.4239L21.915 22.7039H23.323ZM23.403 25.0719L23.683 24.7919V23.8959L23.403 23.6159H21.835L21.555 23.8959V24.7919L21.835 25.0719H23.403ZM26.0085 21.2639V25.1359L26.8725 25.9999H29.3205L30.1845 25.1359V23.3359L29.3205 22.4719H27.5685L27.0965 22.9279V21.6079L27.3765 21.3279H28.7845L29.0645 21.6079V22.0639H30.1525V21.2639L29.2885 20.3999H26.8725L26.0085 21.2639ZM29.0965 24.7919L28.8165 25.0719H27.3765L27.0965 24.7919V23.9999L27.6805 23.3999H28.8165L29.0965 23.6799V24.7919ZM31.2253 25.1359V24.2559H32.3133V24.8079L32.5773 25.0719H34.0173L34.2813 24.8079V23.9039L34.0253 23.6479H32.4253V22.7199H34.0253L34.2813 22.4639V21.5919L34.0173 21.3279H32.6253L32.3613 21.5919V22.1439H31.2733V21.2639L32.1373 20.3999H34.5053L35.3693 21.2639V22.7839L34.9613 23.1839L35.3693 23.5919V25.1359L34.5053 25.9999H32.0893L31.2253 25.1359ZM38.8748 20.3999H39.9628V22.7439H42.3308V20.3999H43.4188V25.9999H42.3308V23.6719H39.9628V25.9999H38.8748V20.3999ZM44.8606 20.3999H45.9486V22.7439H46.7966L48.1486 20.3999H49.3726L47.7326 23.1919L49.5086 25.9999H48.2606L46.7886 23.6719H45.9486V25.9999H44.8606V20.3999ZM36.3684 25.1438V25.6558L36.7124 25.9998H37.2964L37.6324 25.6478V25.1518L37.2964 24.7998H36.7124L36.3684 25.1438Z" fill="#395664"/>
</svg>
