<svg width="64" height="64" viewBox="0 0 64 64" fill="none" xmlns="http://www.w3.org/2000/svg">
<path fill-rule="evenodd" clip-rule="evenodd" d="M32 57.9C46.3042 57.9 57.9 46.3042 57.9 32C57.9 17.6958 46.3042 6.1 32 6.1C17.6958 6.1 6.1 17.6958 6.1 32C6.1 46.3042 17.6958 57.9 32 57.9ZM32 59.5C47.1878 59.5 59.5 47.1878 59.5 32C59.5 16.8122 47.1878 4.5 32 4.5C16.8122 4.5 4.5 16.8122 4.5 32C4.5 47.1878 16.8122 59.5 32 59.5Z" fill="#395664"/>
<path fill-rule="evenodd" clip-rule="evenodd" d="M32.0003 52.1974C43.1549 52.1974 52.1974 43.1549 52.1974 32.0003C52.1974 20.8457 43.1549 11.8031 32.0003 11.8031C20.8457 11.8031 11.8031 20.8457 11.8031 32.0003C11.8031 43.1549 20.8457 52.1974 32.0003 52.1974ZM32.0003 53.7974C44.0385 53.7974 53.7974 44.0385 53.7974 32.0003C53.7974 19.962 44.0385 10.2031 32.0003 10.2031C19.962 10.2031 10.2031 19.962 10.2031 32.0003C10.2031 44.0385 19.962 53.7974 32.0003 53.7974Z" fill="#395664"/>
<path fill-rule="evenodd" clip-rule="evenodd" d="M22.963 28.1871L20.6118 33.394C21.1618 33.657 21.9635 33.9002 22.9998 33.9002C24.0143 33.9002 24.7743 33.6675 25.2854 33.4189L22.963 28.1871ZM26.8876 34.2928C26.2264 34.8294 24.9199 35.5002 22.9998 35.5002C21.0874 35.5002 19.7317 34.8347 19.0263 34.2992C18.757 34.0947 18.7045 33.7301 18.8437 33.4219L22.1845 26.0235C22.4904 25.3459 23.4537 25.349 23.7554 26.0285L27.0493 33.449C27.1799 33.7432 27.1376 34.0899 26.8876 34.2928Z" fill="#395664"/>
<path fill-rule="evenodd" clip-rule="evenodd" d="M40.963 28.1869L38.6118 33.3938C39.1618 33.6568 39.9635 33.9 40.9998 33.9C42.0143 33.9 42.7743 33.6672 43.2854 33.4186L40.963 28.1869ZM44.8876 34.2926C44.2264 34.8292 42.9199 35.5 40.9998 35.5C39.0874 35.5 37.7317 34.8345 37.0263 34.299C36.757 34.0945 36.7045 33.7298 36.8437 33.4217L40.1845 26.0233C40.4904 25.3457 41.4537 25.3487 41.7554 26.0283L45.0493 33.4487C45.1799 33.743 45.1376 34.0897 44.8876 34.2926Z" fill="#395664"/>
<path d="M33.0169 18.8728C33.0169 19.5102 32.5002 20.0269 31.8628 20.0269C31.2254 20.0269 30.7087 19.5102 30.7087 18.8728C30.7087 18.2354 31.2254 17.7188 31.8628 17.7188C32.5002 17.7188 33.0169 18.2354 33.0169 18.8728Z" fill="#395664"/>
<path fill-rule="evenodd" clip-rule="evenodd" d="M26.9879 21.4959C27.5342 21.3322 28.113 21.2 28.6337 21.2C29.4458 21.2 30.2342 21.4735 30.8574 21.7755C31.4871 22.0805 32.0155 22.4475 32.3264 22.7092C32.6644 22.9937 32.7077 23.4984 32.4232 23.8364C32.1387 24.1744 31.634 24.2178 31.296 23.9332C31.0837 23.7545 30.6666 23.4609 30.1598 23.2154C29.6467 22.9668 29.108 22.8 28.6337 22.8C28.3504 22.8 27.9512 22.8775 27.4471 23.0286C26.9536 23.1765 26.4172 23.3765 25.8703 23.5862C25.7803 23.6208 25.6897 23.6557 25.599 23.6907C25.1505 23.8635 24.6982 24.0379 24.2927 24.1745C23.8291 24.3307 23.3142 24.4787 22.8826 24.4787C22.0374 24.4787 21.4026 24.0791 21.0711 23.4881C20.7684 22.9484 20.7384 22.2735 21.0032 21.7438C21.2008 21.3487 21.6813 21.1885 22.0765 21.3861C22.4717 21.5837 22.6319 22.0642 22.4343 22.4594C22.4343 22.4594 22.4306 22.4676 22.4275 22.4831C22.4242 22.4999 22.422 22.5221 22.4231 22.5486C22.4252 22.6031 22.4404 22.6587 22.4666 22.7053C22.4909 22.7487 22.5251 22.7857 22.5755 22.8144C22.6257 22.8429 22.7192 22.8787 22.8826 22.8787C23.0225 22.8787 23.3113 22.8168 23.7819 22.6583C24.1516 22.5337 24.5644 22.3746 25.0128 22.2019C25.1061 22.1659 25.2009 22.1294 25.2972 22.0924C25.8443 21.8825 26.4308 21.6628 26.9879 21.4959Z" fill="#395664"/>
<path fill-rule="evenodd" clip-rule="evenodd" d="M36.6893 21.4959C36.1429 21.3322 35.5641 21.2 35.0434 21.2C34.2314 21.2 33.4429 21.4735 32.8197 21.7755C32.1901 22.0805 31.6616 22.4475 31.3508 22.7092C31.0127 22.9937 31.7155 23.662 32 24C32.2845 24.338 32.0432 24.2178 32.3812 23.9332C32.5935 23.7545 33.0106 23.4609 33.5173 23.2154C34.0304 22.9668 34.5691 22.8 35.0434 22.8C35.3267 22.8 35.7259 22.8775 36.23 23.0286C36.7235 23.1765 37.26 23.3765 37.8068 23.5862C37.8968 23.6208 37.9874 23.6557 38.0782 23.6907C38.5266 23.8635 38.9789 24.0379 39.3844 24.1745C39.848 24.3307 40.363 24.4787 40.7945 24.4787C41.6398 24.4787 42.2745 24.0791 42.6061 23.4881C42.9087 22.9484 42.9388 22.2735 42.6739 21.7438C42.4763 21.3487 41.9958 21.1885 41.6006 21.3861C41.2054 21.5837 41.0453 22.0642 41.2428 22.4594C41.2428 22.4594 41.2465 22.4676 41.2496 22.4831C41.2529 22.4999 41.2551 22.5221 41.2541 22.5486C41.2519 22.6031 41.2367 22.6587 41.2106 22.7053C41.1863 22.7487 41.1521 22.7857 41.1016 22.8144C41.0515 22.8429 40.9579 22.8787 40.7945 22.8787C40.6546 22.8787 40.3659 22.8168 39.8953 22.6583C39.5255 22.5337 39.1127 22.3746 38.6644 22.2019C38.5711 22.1659 38.4762 22.1294 38.3799 22.0924C37.8328 21.8825 37.2463 21.6628 36.6893 21.4959Z" fill="#395664"/>
<path fill-rule="evenodd" clip-rule="evenodd" d="M31.9998 21.2C32.4416 21.2 32.7998 21.5581 32.7998 22V27C32.7998 27.4418 32.4416 27.8 31.9998 27.8C31.5579 27.8 31.1998 27.4418 31.1998 27V22C31.1998 21.5581 31.5579 21.2 31.9998 21.2Z" fill="#395664"/>
<path fill-rule="evenodd" clip-rule="evenodd" d="M32 29.2C32.4418 29.2 32.8 29.5581 32.8 30V41C32.8 41.4418 32.4418 41.8 32 41.8C31.5581 41.8 31.2 41.4418 31.2 41V30C31.2 29.5581 31.5581 29.2 32 29.2Z" fill="#395664"/>
<path fill-rule="evenodd" clip-rule="evenodd" d="M29.7 41.5C29.7 41.0581 30.0581 40.7 30.5 40.7H33.5C33.9418 40.7 34.3 41.0581 34.3 41.5C34.3 41.9418 33.9418 42.3 33.5 42.3H30.5C30.0581 42.3 29.7 41.9418 29.7 41.5Z" fill="#395664"/>
<path fill-rule="evenodd" clip-rule="evenodd" d="M24.2 44C24.2 43.5581 24.5581 43.2 25 43.2H39C39.4418 43.2 39.8 43.5581 39.8 44C39.8 44.4418 39.4418 44.8 39 44.8H25C24.5581 44.8 24.2 44.4418 24.2 44Z" fill="#395664"/>
</svg>
