<svg width="33px" height="32px" viewBox="0 0 33 32" version="1.1" xmlns="http://www.w3.org/2000/svg" xmlns:xlink="http://www.w3.org/1999/xlink">
    <g id="页面-1" stroke="none" stroke-width="1" fill="none" fill-rule="evenodd">
        <g id="商户选择" transform="translate(-1104.000000, -324.000000)">
            <g id="编组" transform="translate(1104.230769, 324.000000)">
                <circle id="椭圆形" fill="#454549" fill-rule="nonzero" cx="16" cy="16" r="16"></circle>
                <path d="M11.1216,9.63664 C10.731,9.24612 10.0979,9.24612 9.70734,9.63664 C9.31681,10.0272 9.31682,10.6603 9.70734,11.0509 L14.6569,16.0005 L9.70696,20.9504 C9.31643,21.341 9.31643,21.9741 9.70696,22.3647 C10.0975,22.7552 10.7306,22.7552 11.1212,22.3647 L16.0712,17.4147 L21.021,22.3646 C21.4116,22.7551 22.0447,22.7551 22.4353,22.3646 C22.8258,21.974 22.8258,21.3409 22.4353,20.9504 L17.4854,16.0005 L22.4349,11.0509 C22.8254,10.6604 22.8254,10.0273 22.4349,9.63674 C22.0444,9.24621 21.4112,9.24621 21.0207,9.63674 L16.0712,14.5862 L11.1216,9.63664 Z" id="路径" fill="#E8E8E8"></path>
            </g>
        </g>
    </g>
</svg>