
<svg xmlns = "http://www.w3.org/2000/svg" width = "11" height = "11" viewBox = "0 0 11 11" fill = "none">
  <path d="M5 4.3335H6V9.00012H5V4.3335Z" fill="white"/>
  <path d="M5 2H6V3.16662H5V2Z" fill="white"/>
  <path fill-rule="evenodd" clip-rule="evenodd" d="M0 5.5C0 2.46738 2.46725 0 5.5 0C8.53275 0 11 2.46738 11 5.5C11 8.53263 8.53275 11 5.5 11C2.46725 11 0 8.53263 0 5.5ZM1.10008 5.5C1.10008 7.92613 3.07387 9.89992 5.5 9.89992C7.92613 9.89992 9.89992 7.92613 9.89992 5.5C9.89992 3.07387 7.92613 1.10008 5.5 1.10008C3.07387 1.10008 1.10008 3.07387 1.10008 5.5Z" fill="white"/>
</svg>
