<svg xmlns="http://www.w3.org/2000/svg" width="80" height="51" viewBox="0 0 80 51" fill="none">
  <ellipse cx="49.3752" cy="24.9767" rx="7.24283" ry="6.98448" stroke="#8A8B8D" stroke-width="1.5" stroke-linecap="round" stroke-dasharray="2"/>
  <path fill-rule="evenodd" clip-rule="evenodd" d="M36.7905 10.9746C35.4697 12.8044 33.2616 14.0035 30.7607 14.0035C26.717 14.0035 23.439 10.8687 23.439 7.00172C23.439 3.13478 26.717 0 30.7607 0C33.3179 0 35.5689 1.25367 36.8783 3.15337H36.8793C37.5895 4.08335 38.7384 4.68753 40.0349 4.68753C41.3313 4.68753 42.4802 4.08335 43.1904 3.15337H43.1915C44.5009 1.25367 46.7519 0 49.3091 0C53.3527 0 56.6308 3.13478 56.6308 7.00172C56.6308 10.8687 53.3527 14.0035 49.3091 14.0035C46.8081 14.0035 44.6001 12.8044 43.2793 10.9746H43.276C42.5746 9.9788 41.3847 9.3238 40.0349 9.3238C38.685 9.3238 37.4951 9.9788 36.7938 10.9746H36.7905Z" stroke="#8A8B8D" stroke-width="1.5" stroke-linecap="round" stroke-dasharray="2"/>
  <path fill-rule="evenodd" clip-rule="evenodd" d="M26.5799 30.8675C24.6825 29.5938 23.439 27.4645 23.439 25.0527C23.439 21.1533 26.6897 17.9922 30.6997 17.9922C34.7097 17.9922 37.9604 21.1533 37.9604 25.0527C37.9604 27.5187 36.6604 29.6895 34.6904 30.9521V30.9531C33.726 31.638 33.0995 32.7459 33.0995 33.9961C33.0995 35.2463 33.726 36.3542 34.6904 37.0391V37.0401C36.6604 38.3028 37.9604 40.4735 37.9604 42.9395C37.9604 46.8389 34.7097 50.0001 30.6997 50.0001C26.6897 50.0001 23.439 46.8389 23.439 42.9395C23.439 40.5278 24.6825 38.3985 26.5799 37.1248V37.1216C27.6125 36.4453 28.2917 35.2978 28.2917 33.9961C28.2917 32.6944 27.6125 31.547 26.5799 30.8706V30.8675Z" stroke="#8A8B8D" stroke-width="1.5" stroke-linecap="round" stroke-dasharray="2"/>
  <path d="M13.0268 23.8086H1" stroke="#8A8B8D" stroke-width="1.5" stroke-linecap="round" stroke-dasharray="2"/>
  <path d="M4.72461 10.2852L13.3152 14.4223" stroke="#8A8B8D" stroke-width="1.5" stroke-linecap="round" stroke-dasharray="2"/>
  <path d="M4.72461 37.703L13.3152 33.5659" stroke="#8A8B8D" stroke-width="1.5" stroke-linecap="round" stroke-dasharray="2"/>
  <path d="M66.9741 24.1758H79.001" stroke="#8A8B8D" stroke-width="1.5" stroke-linecap="round" stroke-dasharray="2"/>
  <path d="M75.2766 37.6991L66.686 33.562" stroke="#8A8B8D" stroke-width="1.5" stroke-linecap="round" stroke-dasharray="2"/>
  <path d="M75.2752 10.2812L66.6846 14.4184" stroke="#8A8B8D" stroke-width="1.5" stroke-linecap="round" stroke-dasharray="2"/>
</svg>
