<svg width="41" height="41" viewBox="0 0 41 41" fill="none" xmlns="http://www.w3.org/2000/svg">
<rect x="2.9375" y="2.9375" width="36" height="36" rx="6.67" fill="#395664"/>
<rect x="2.9375" y="2.9375" width="36" height="36" rx="6.67" stroke="white" stroke-width="4"/>
<path d="M11.8536 17.5994V17.6794H11.9336H12.1898H12.2698V17.5994V12.0036H29.9689V29.8718H12.2698V24.2757V24.1957H12.1898H11.9336H11.8536V24.2757V30.2103V30.2903H11.9336H30.3051H30.3851V30.2103V11.665V11.585H30.3051H11.9336H11.8536V11.665V17.5994Z" fill="white" stroke="white" stroke-width="0.16"/>
<path d="M13.3978 23.073L13.597 22.9258L13.6184 22.9078C13.7963 22.739 13.9209 22.6062 13.992 22.4984C14.3265 22.0244 14.4973 21.5108 14.4973 20.9757V20.8824C14.4973 20.4406 14.3728 19.9989 14.1237 19.5644C14.0454 19.4315 13.928 19.2807 13.7536 19.0903C13.2555 18.6127 12.6826 18.3721 12.0314 18.3721C11.4158 18.3721 10.8572 18.5983 10.3697 19.0436L10.359 19.0544C9.83949 19.5859 9.57617 20.2144 9.57617 20.9398C9.57617 21.6653 9.83949 22.2865 10.3661 22.8181C10.85 23.2706 11.4158 23.5004 12.0385 23.5004C12.5189 23.5004 12.9743 23.3603 13.4013 23.0766L13.3978 23.073ZM11.6578 22.6852C11.4763 22.6349 11.4087 22.6026 11.3838 22.5882L11.3375 22.5667C11.277 22.5451 11.1418 22.4769 10.8999 22.2578C10.5369 21.87 10.359 21.439 10.359 20.9362C10.359 20.4766 10.5049 20.0743 10.8073 19.7044C11.1703 19.3202 11.5688 19.1334 12.035 19.1334C12.5011 19.1334 12.8925 19.3094 13.2377 19.6649C13.565 20.042 13.7251 20.4514 13.7251 20.9183V20.9506C13.7251 21.342 13.6113 21.6976 13.3658 22.0459C13.3373 22.089 13.259 22.1896 13.0491 22.3799C12.7253 22.6169 12.4121 22.7319 12.0919 22.7319H11.9887C11.8926 22.7319 11.7788 22.7175 11.6578 22.6888V22.6852Z" fill="white"/>
<path d="M14.6438 22.165L14.7933 22.5133C14.8467 22.6103 14.8965 22.6893 14.9285 22.7324C14.9819 22.815 15.0602 22.9084 15.1847 23.0413C15.2701 23.1167 15.3377 23.1741 15.3875 23.21C15.722 23.4471 16.0992 23.5656 16.5048 23.5656C16.7503 23.5656 16.9923 23.5189 17.2272 23.4291C17.5794 23.289 17.8499 23.0664 18.0278 22.7647C18.1666 22.5169 18.2342 22.2655 18.2342 22.0141V21.9746C18.2342 21.7592 18.1808 21.5473 18.074 21.3318C18.0278 21.2456 17.9744 21.1666 17.9246 21.1092C17.9032 21.0804 17.8641 21.0337 17.7289 20.9152C17.6186 20.829 17.5118 20.7608 17.4086 20.7141C17.3161 20.671 17.2058 20.6315 17.0742 20.5956C16.8215 20.5417 16.6187 20.4915 16.4621 20.4484C16.213 20.3765 16.0316 20.3083 15.907 20.2365C15.8608 20.2149 15.8074 20.1754 15.754 20.1251C15.7007 20.0785 15.6295 19.9959 15.6295 19.8127C15.6295 19.6547 15.6829 19.5074 15.786 19.3746C15.8216 19.3315 15.8679 19.2884 15.9248 19.2453C16.0956 19.1232 16.2949 19.0657 16.544 19.0657C16.7681 19.0657 16.9638 19.1304 17.1418 19.2632C17.1845 19.292 17.2272 19.3315 17.277 19.3853C17.3339 19.4464 17.3766 19.5039 17.4015 19.5541L17.5083 19.766L18.2235 19.4608L18.0989 19.213C18.0634 19.1411 18.0064 19.0585 17.9424 18.9795C17.9175 18.9436 17.8748 18.8862 17.7324 18.7497C17.6399 18.6671 17.5581 18.6096 17.4905 18.5665C17.2023 18.3906 16.8891 18.3008 16.5582 18.3008H16.5155C16.3625 18.3008 16.1953 18.3223 16.028 18.3618H16.0209C15.9141 18.3942 15.8074 18.4337 15.6971 18.4839C15.6224 18.5198 15.5548 18.5594 15.5156 18.5881C15.4587 18.6168 15.3946 18.6707 15.2808 18.7748C15.2274 18.8323 15.1811 18.8826 15.1384 18.9364C14.9463 19.2022 14.8467 19.4931 14.8467 19.8163C14.8467 20.2329 15.0352 20.5812 15.3982 20.8218C15.4978 20.8865 15.5975 20.9404 15.7006 20.987C15.9675 21.1056 16.3625 21.2241 16.8678 21.3282C16.9354 21.3462 16.9923 21.3641 17.0386 21.3821C17.0813 21.4 17.124 21.4216 17.1631 21.4503L17.1916 21.4683C17.2165 21.4826 17.245 21.5114 17.277 21.5365C17.398 21.6658 17.4549 21.8094 17.4549 21.989C17.4549 22.0752 17.4407 22.1614 17.4086 22.2476C17.3766 22.3445 17.3161 22.4379 17.245 22.5133C17.1667 22.5852 17.1311 22.6103 17.1133 22.6175C16.9247 22.7324 16.7254 22.7899 16.5013 22.7899C16.2771 22.7899 16.0743 22.7324 15.8714 22.5995C15.8643 22.5995 15.8323 22.5744 15.7505 22.5026C15.6793 22.4343 15.6295 22.3805 15.601 22.3374C15.5441 22.2584 15.4943 22.1758 15.4622 22.0967L15.3946 21.9459L15.3733 21.8705L15.0566 21.9926H15.0424L14.9392 22.0393L14.8858 22.0608L14.6367 22.1578L14.6438 22.165Z" fill="white"/>
<path d="M18.7646 18.373V23.5014H21.7394V22.74H19.5368V18.373H18.7646Z" fill="white"/>
</svg>
