<svg width="24" height="24" viewBox="0 0 24 24" fill="none" xmlns="http://www.w3.org/2000/svg">
<g id="Component 59">
<path id="Vector" d="M17.2684 9.8838L10.8068 16.3453C10.7211 16.4312 10.6193 16.4992 10.5072 16.5457C10.3952 16.5922 10.2751 16.6161 10.1538 16.6161C10.0325 16.6161 9.91233 16.5922 9.80027 16.5457C9.68821 16.4992 9.58641 16.4312 9.50068 16.3453L6.73145 13.5761C6.55824 13.4029 6.46094 13.168 6.46094 12.923C6.46094 12.6781 6.55824 12.4432 6.73145 12.2699C6.90466 12.0967 7.13958 11.9994 7.38453 11.9994C7.62948 11.9994 7.8644 12.0967 8.0376 12.2699L10.1538 14.3873L15.9622 8.57764C16.048 8.49188 16.1498 8.42385 16.2619 8.37743C16.3739 8.33102 16.494 8.30713 16.6153 8.30713C16.7366 8.30713 16.8567 8.33102 16.9687 8.37743C17.0808 8.42385 17.1826 8.49188 17.2684 8.57764C17.3541 8.6634 17.4222 8.76522 17.4686 8.87728C17.515 8.98933 17.5389 9.10943 17.5389 9.23072C17.5389 9.35201 17.515 9.47211 17.4686 9.58416C17.4222 9.69622 17.3541 9.79803 17.2684 9.8838Z" fill="#32A274"/>
<circle id="Ellipse 8319" cx="12" cy="12" r="11.25" stroke="#32A274" stroke-width="1.5"/>
</g>
</svg>
