<svg xmlns="http://www.w3.org/2000/svg" width="21" height="21" viewBox="0 0 21 21" fill="none">
  <path fill-rule="evenodd" clip-rule="evenodd" d="M0 10.5C0 4.70101 4.70101 0 10.5 0C16.299 0 21 4.70101 21 10.5C21 16.299 16.299 21 10.5 21C4.70101 21 0 16.299 0 10.5ZM15.8653 14.9452C15.8653 14.701 15.7676 14.4669 15.594 14.295L11.859 10.56L15.594 6.825C15.7681 6.65309 15.866 6.41864 15.866 6.174C15.866 5.92936 15.7681 5.69491 15.594 5.523C15.4221 5.34941 15.188 5.25174 14.9438 5.25174C14.6995 5.25174 14.4654 5.34941 14.2935 5.523L10.5585 9.258L6.8235 5.523C6.65159 5.34895 6.41714 5.25098 6.1725 5.25098C5.92786 5.25098 5.69341 5.34895 5.5215 5.523C5.34745 5.69491 5.24948 5.92936 5.24948 6.174C5.24948 6.41864 5.34745 6.65309 5.5215 6.825L9.2565 10.56L5.5215 14.295C5.34791 14.4669 5.25024 14.701 5.25024 14.9452C5.25024 15.1895 5.34791 15.4236 5.5215 15.5955C5.69341 15.7696 5.92786 15.8675 6.1725 15.8675C6.41714 15.8675 6.65159 15.7696 6.8235 15.5955L10.5585 11.8605L14.2935 15.5955C14.4654 15.7691 14.6995 15.8668 14.9438 15.8668C15.188 15.8668 15.4221 15.7691 15.594 15.5955C15.7676 15.4236 15.8653 15.1895 15.8653 14.9452Z" fill="#EA2525"/>
</svg>
