<svg xmlns="http://www.w3.org/2000/svg" width="21" height="21" viewBox="0 0 21 21" fill="none">
  <path fill-rule="evenodd" clip-rule="evenodd" d="M0 10.5C0 4.704 4.6935 0 10.5 0C16.296 0 21 4.704 21 10.5C21 16.296 16.296 21 10.5 21C4.704 21 0 16.296 0 10.5ZM9.639 14.28L16.002 7.917C16.4115 7.518 16.4115 7.1085 15.981 6.72C15.582 6.321 15.1725 6.321 14.7735 6.72L8.9565 12.537L6.1845 9.765C5.7855 9.366 5.376 9.366 4.977 9.765C4.578 10.164 4.578 10.5735 4.977 10.9725L8.316 14.301C8.568 14.5425 8.8095 14.637 9.0615 14.5845C9.261 14.574 9.45 14.469 9.639 14.28Z" fill="#0DC66A"/>
</svg>
