<svg xmlns="http://www.w3.org/2000/svg" width="14" height="14" viewBox="0 0 14 14" fill="none">
  <path fill-rule="evenodd" clip-rule="evenodd" d="M13.2969 7.29688C12.9085 7.29688 12.5938 7.61167 12.5938 8V12.5938H1.40624V1.40624H6C6.38833 1.40624 6.70312 1.09145 6.70312 0.703122C6.70312 0.314791 6.38833 0 6 0H1.40624C0.629597 0 0 0.629597 0 1.40624V12.5938C0 13.3704 0.629597 14 1.40624 14H12.5938C13.3704 14 14 13.3704 14 12.5938V8C14 7.61165 13.6852 7.29688 13.2969 7.29688ZM7.84932 7.15994L12.6423 2.37729V4.72682C12.6423 5.10095 12.9462 5.40423 13.3211 5.40423C13.6961 5.40423 14 5.10095 14 4.72682V1.28685C14 0.576144 13.4226 0 12.7104 1.43885e-05H9.26302C8.8881 1.43885e-05 8.58417 0.303295 8.58417 0.67741C8.58417 1.05155 8.8881 1.35482 9.26302 1.35482H11.6493L6.8405 6.15328C6.56194 6.43127 6.56194 6.88196 6.8405 7.15994C7.11909 7.43791 7.57075 7.43791 7.84932 7.15994Z" fill="white"/>
</svg>
