
<svg width="46" height="46" viewBox="0 0 46 46" fill="none" xmlns="http://www.w3.org/2000/svg">
<circle cx="23" cy="23" r="21" stroke="url(#paint0_linear_402_363)" stroke-width="3"/>
<path fill-rule="evenodd" clip-rule="evenodd" d="M20 13C20.5523 13 21 13.4477 21 14C21 14.5523 20.5523 15 20 15H16.3333C15.5969 15 15 15.5969 15 16.3333V19.9994C15 20.5517 14.5523 20.9996 14 20.9998C13.4804 21 13.0531 20.6038 13.0046 20.0967L13 20.0002V16.3333C13 14.5408 14.4148 13.0787 16.1888 13.0031L16.3333 13H20ZM28.8333 22C29.4777 22 30 22.4477 30 23C30 23.5523 29.4777 24 28.8333 24H17.1667C16.5223 24 16 23.5523 16 23C16 22.4477 16.5223 22 17.1667 22H28.8333ZM32.9969 16.1888C32.9212 14.4148 31.4592 13 29.6667 13H26C25.4477 13 25 13.4477 25 14C25 14.5523 25.4477 15 26 15H29.6667C30.4031 15 31 15.5969 31 16.3333V20C31 20.5523 31.4477 21 32 21C32.5523 21 33 20.5523 33 20V16.3333L32.9969 16.1888ZM33 26V29.6667C33 31.4592 31.5852 32.9212 29.8113 32.9969L29.6667 33H26C25.4477 33 25 32.5523 25 32C25 31.4477 25.4477 31 26 31H29.6667C30.4031 31 31 30.4031 31 29.6667V26C31 25.4477 31.4477 25 32 25C32.5523 25 33 25.4477 33 26ZM15 26C15 25.4477 14.5523 25 14 25C13.4477 25 13 25.4477 13 26V29.6667L13.0031 29.8113C13.0787 31.5852 14.5408 33 16.3333 33H20C20.5523 33 21 32.5523 21 32C21 31.4477 20.5523 31 20 31H16.3333C15.5969 31 15 30.4031 15 29.6667V26Z" fill="white"/>
<g clip-path="url(#clip0_402_363)">
<circle cx="23" cy="23" r="4" fill="white"/>
<path d="M22.7933 25.522V20.254H23.2013V25.522H22.7933ZM23.0513 25.072C22.7433 25.072 22.4733 25.018 22.2413 24.91C22.0093 24.798 21.8293 24.642 21.7013 24.442C21.5733 24.242 21.5093 24.008 21.5093 23.74H22.1393C22.1433 23.892 22.1793 24.032 22.2473 24.16C22.3193 24.284 22.4213 24.384 22.5533 24.46C22.6893 24.532 22.8553 24.568 23.0513 24.568C23.2193 24.568 23.3633 24.54 23.4833 24.484C23.6073 24.428 23.7013 24.352 23.7653 24.256C23.8293 24.156 23.8613 24.042 23.8613 23.914C23.8613 23.766 23.8273 23.644 23.7593 23.548C23.6913 23.452 23.5993 23.374 23.4833 23.314C23.3713 23.25 23.2393 23.194 23.0873 23.146C22.9393 23.098 22.7833 23.046 22.6193 22.99C22.2873 22.882 22.0393 22.742 21.8753 22.57C21.7153 22.398 21.6353 22.174 21.6353 21.898C21.6353 21.662 21.6913 21.458 21.8033 21.286C21.9153 21.11 22.0713 20.974 22.2713 20.878C22.4753 20.778 22.7153 20.728 22.9913 20.728C23.2633 20.728 23.5013 20.778 23.7053 20.878C23.9093 20.978 24.0693 21.116 24.1853 21.292C24.3013 21.468 24.3593 21.674 24.3593 21.91H23.7233C23.7233 21.802 23.6953 21.696 23.6393 21.592C23.5833 21.488 23.4993 21.404 23.3873 21.34C23.2753 21.272 23.1373 21.238 22.9733 21.238C22.8373 21.234 22.7153 21.256 22.6073 21.304C22.4993 21.352 22.4153 21.422 22.3553 21.514C22.2953 21.606 22.2653 21.716 22.2653 21.844C22.2653 21.972 22.2913 22.076 22.3433 22.156C22.3993 22.232 22.4793 22.298 22.5833 22.354C22.6873 22.41 22.8073 22.462 22.9433 22.51C23.0833 22.554 23.2373 22.604 23.4053 22.66C23.6133 22.728 23.7973 22.812 23.9573 22.912C24.1213 23.008 24.2493 23.134 24.3413 23.29C24.4373 23.442 24.4853 23.638 24.4853 23.878C24.4853 24.086 24.4313 24.28 24.3233 24.46C24.2153 24.64 24.0553 24.788 23.8433 24.904C23.6313 25.016 23.3673 25.072 23.0513 25.072Z" fill="#2F2F33"/>
</g>
<defs>
<linearGradient id="paint0_linear_402_363" x1="-19" y1="23" x2="23" y2="65" gradientUnits="userSpaceOnUse">
<stop stop-color="#292FE1"/>
<stop offset="1" stop-color="#C20ED7"/>
</linearGradient>
<clipPath id="clip0_402_363">
<rect width="8" height="8" fill="white" transform="translate(19 19)"/>
</clipPath>
</defs>
</svg>
